<svg width="200" height="59" viewBox="0 0 200 59" fill="none" xmlns="http://www.w3.org/2000/svg">
<g clip-path="url(#clip0_1_28)">
<path d="M192.884 59H7.00593C5.14814 58.9957 3.36776 58.2586 2.05465 56.9502C0.741552 55.6417 0.00273858 53.8685 0 52.0188L0 6.97085C0.00274556 5.12214 0.741891 3.34999 2.05529 2.04317C3.36869 0.736347 5.14909 0.00156038 7.00593 0L192.884 0C196.745 0 200 3.127 200 6.97085V52.0188C200 55.8612 196.745 59 192.884 59Z" fill="white"/>
<path d="M198.566 52.022C198.566 52.7644 198.419 53.4995 198.133 54.1852C197.848 54.871 197.429 55.4941 196.902 56.0187C196.374 56.5434 195.748 56.9594 195.059 57.2429C194.37 57.5265 193.631 57.672 192.886 57.6713H7.00577C5.4992 57.6728 4.05369 57.0786 2.98714 56.0192C1.92059 54.9598 1.32032 53.522 1.31836 52.022V6.97108C1.32032 5.47043 1.92035 4.03188 2.98669 2.97131C4.05303 1.91074 5.49852 1.31484 7.00577 1.31445H192.884C193.63 1.31445 194.369 1.46078 195.058 1.74507C195.747 2.02936 196.374 2.44604 196.901 2.97133C197.429 3.49662 197.847 4.12021 198.132 4.80649C198.418 5.49278 198.564 6.22831 198.564 6.97108L198.566 52.022Z" fill="#1C6BF5"/>
<path d="M54.9241 28.2635C54.8891 24.3999 58.1093 22.5203 58.2566 22.4327C56.4329 19.7919 53.6061 19.4311 52.6128 19.4023C50.2387 19.1542 47.9358 20.8132 46.7264 20.8132C45.4929 20.8132 43.6305 19.4263 41.6233 19.467C39.0404 19.5066 36.6241 20.9918 35.2988 23.2982C32.5638 28.001 34.6036 34.9118 37.2239 38.713C38.5347 40.5747 40.0663 42.6533 42.0711 42.5802C44.0324 42.4999 44.7651 41.3383 47.1319 41.3383C49.4771 41.3383 50.1651 42.5802 52.2097 42.5334C54.3146 42.4999 55.6399 40.6634 56.9048 38.7849C58.4195 36.6512 59.0278 34.5497 59.052 34.4419C59.0025 34.4251 54.964 32.8943 54.9241 28.2635ZM51.0618 16.9017C52.1167 15.5915 52.8385 13.8089 52.6381 12C51.1113 12.0671 49.2019 13.0489 48.1023 14.3304C47.1295 15.4596 46.2605 17.3105 46.485 19.0511C48.2001 19.1781 49.9611 18.1916 51.0618 16.9017ZM83.3084 42.3129H80.5674L79.066 37.6269H73.847L72.4168 42.3129H69.7481L74.9188 26.3599H78.1124L83.3084 42.3129ZM78.6133 35.661L77.2555 31.4953C77.1119 31.0698 76.8427 30.0676 76.4456 28.49H76.3973C76.1566 29.4951 75.9023 30.497 75.6345 31.4953L74.3008 35.661H78.6133ZM96.6056 36.4198C96.6056 38.3762 96.0734 39.9226 95.0088 41.0578C94.0553 42.0683 92.8713 42.573 91.4579 42.573C89.9323 42.573 88.8364 42.0288 88.1689 40.9403H88.1206V47H85.5474V34.5965C85.5474 33.3666 85.5148 32.1043 85.452 30.8096H87.7151L87.8587 32.6329H87.907C88.7652 31.2592 90.0675 30.5735 91.8152 30.5735C93.1815 30.5735 94.322 31.1093 95.2345 32.1822C96.1494 33.2563 96.6056 34.6684 96.6056 36.4198ZM93.9841 36.5133C93.9841 35.3937 93.7306 34.4706 93.2213 33.7442C92.6649 32.9866 91.9178 32.6078 90.9812 32.6078C90.3463 32.6078 89.7694 32.8187 89.254 33.2347C88.7374 33.6543 88.3994 34.2021 88.2413 34.8806C88.1617 35.1971 88.1218 35.456 88.1218 35.6598V37.5778C88.1218 38.4145 88.3801 39.1206 88.8967 39.6972C89.4133 40.2738 90.0844 40.5615 90.9099 40.5615C91.8791 40.5615 92.6335 40.1899 93.173 39.4491C93.7137 38.707 93.9841 37.7288 93.9841 36.5133ZM109.927 36.4198C109.927 38.3762 109.395 39.9226 108.329 41.0578C107.377 42.0683 106.193 42.573 104.779 42.573C103.254 42.573 102.158 42.0288 101.491 40.9403H101.443V47H98.8699V34.5965C98.8699 33.3666 98.8373 32.1043 98.7746 30.8096H101.038L101.181 32.6329H101.23C102.086 31.2592 103.389 30.5735 105.138 30.5735C106.503 30.5735 107.643 31.1093 108.558 32.1822C109.47 33.2563 109.927 34.6684 109.927 36.4198ZM107.305 36.5133C107.305 35.3937 107.051 34.4706 106.541 33.7442C105.985 32.9866 105.24 32.6078 104.302 32.6078C103.67 32.6076 103.058 32.8297 102.574 33.2347C102.058 33.6543 101.721 34.2021 101.563 34.8806C101.484 35.1971 101.443 35.456 101.443 35.6598V37.5778C101.443 38.4145 101.701 39.1206 102.216 39.6972C102.732 40.2726 103.403 40.5615 104.231 40.5615C105.2 40.5615 105.955 40.1899 106.494 39.4491C107.035 38.707 107.305 37.7288 107.305 36.5133ZM124.821 37.8391C124.821 39.1961 124.347 40.3002 123.394 41.1525C122.348 42.0839 120.891 42.549 119.019 42.549C117.291 42.549 115.905 42.2182 114.856 41.5553L115.452 39.4251C116.582 40.1036 117.822 40.444 119.172 40.444C120.142 40.444 120.896 40.2258 121.438 39.7919C121.977 39.3579 122.247 38.7754 122.247 38.0489C122.247 37.4016 122.024 36.8561 121.579 36.4138C121.136 35.9715 120.396 35.5603 119.363 35.1803C116.551 34.1386 115.146 32.6126 115.146 30.6059C115.146 29.2944 115.638 28.2191 116.624 27.3824C117.607 26.5445 118.918 26.1261 120.557 26.1261C122.018 26.1261 123.233 26.379 124.202 26.8837L123.558 28.9672C122.653 28.4781 121.63 28.2335 120.484 28.2335C119.579 28.2335 118.872 28.4553 118.365 28.8964C118.159 29.077 117.995 29.2996 117.884 29.5489C117.773 29.7982 117.718 30.0684 117.722 30.3409C117.722 30.9715 117.967 31.4929 118.459 31.9029C118.888 32.2817 119.666 32.6917 120.796 33.134C122.178 33.6866 123.193 34.3328 123.846 35.0736C124.496 35.812 124.821 36.7363 124.821 37.8391ZM133.329 32.7276H130.493V38.3126C130.493 39.7332 130.992 40.4428 131.994 40.4428C132.454 40.4428 132.835 40.4033 133.137 40.3241L133.208 42.2649C132.701 42.4531 132.034 42.5478 131.207 42.5478C130.191 42.5478 129.397 42.2397 128.823 41.6248C128.252 41.0086 127.965 39.9753 127.965 38.5236V32.7252H126.275V30.8072H127.965V28.701L130.493 27.9434V30.8072H133.329V32.7276ZM146.126 36.4666C146.126 38.2347 145.617 39.6864 144.601 40.8216C143.535 41.9904 142.12 42.573 140.357 42.573C138.658 42.573 137.305 42.0132 136.296 40.8936C135.287 39.7739 134.782 38.3606 134.782 36.6572C134.782 34.8746 135.301 33.4145 136.343 32.2793C137.382 31.1429 138.784 30.5747 140.548 30.5747C142.247 30.5747 143.615 31.1345 144.647 32.2553C145.634 33.3426 146.126 34.7463 146.126 36.4666ZM143.457 36.5493C143.457 35.4884 143.228 34.5785 142.766 33.8197C142.227 32.9015 141.455 32.4435 140.456 32.4435C139.422 32.4435 138.636 32.9027 138.096 33.8197C137.634 34.5797 137.406 35.504 137.406 36.5972C137.406 37.6581 137.634 38.568 138.096 39.3256C138.653 40.2438 139.43 40.7017 140.433 40.7017C141.416 40.7017 142.187 40.2342 142.743 39.3016C143.218 38.5284 143.457 37.609 143.457 36.5493ZM154.491 33.0573C154.223 33.0093 153.952 32.9856 153.68 32.9866C152.774 32.9866 152.074 33.3258 151.582 34.0055C151.153 34.6049 150.939 35.3625 150.939 36.2771V42.3129H148.367L148.391 34.4323C148.391 33.1064 148.358 31.8993 148.294 30.8108H150.535L150.63 33.0117H150.701C150.972 32.2553 151.401 31.6464 151.987 31.1896C152.524 30.7906 153.177 30.5744 153.847 30.5735C154.085 30.5735 154.3 30.5903 154.491 30.6202V33.0573ZM165.999 36.017C166.006 36.4055 165.974 36.7938 165.905 37.1762H158.185C158.215 38.3126 158.588 39.1817 159.305 39.7811C159.956 40.3169 160.797 40.5855 161.83 40.5855C162.973 40.5855 164.016 40.4045 164.954 40.0412L165.357 41.8154C164.261 42.2901 162.967 42.5263 161.474 42.5263C159.678 42.5263 158.269 42.0012 157.243 40.9523C156.219 39.9034 155.706 38.4948 155.706 36.7279C155.706 34.9933 156.183 33.5488 157.138 32.3968C158.137 31.1669 159.488 30.5519 161.187 30.5519C162.856 30.5519 164.12 31.1669 164.978 32.3968C165.658 33.3738 165.999 34.5821 165.999 36.017ZM163.545 35.3541C163.562 34.5965 163.395 33.942 163.046 33.3894C162.6 32.6785 161.916 32.3237 160.995 32.3237C160.154 32.3237 159.469 32.6701 158.947 33.3654C158.518 33.918 158.264 34.5809 158.185 35.3529H163.545V35.3541ZM77.7624 16.5457C77.7624 17.9566 77.3364 19.0187 76.4855 19.732C75.6973 20.3901 74.5772 20.7197 73.1265 20.7197C72.4071 20.7197 71.7915 20.6886 71.2762 20.6262V12.917C71.9484 12.8092 72.6726 12.754 73.4547 12.754C74.8367 12.754 75.8783 13.0525 76.5808 13.6495C77.3677 14.3244 77.7624 15.2894 77.7624 16.5457ZM76.4287 16.5804C76.4287 15.6658 76.1849 14.9645 75.6973 14.4754C75.2097 13.9875 74.4976 13.743 73.5598 13.743C73.1615 13.743 72.8223 13.7694 72.5411 13.8245V19.6852C72.6968 19.7092 72.9816 19.72 73.3956 19.72C74.3636 19.72 75.1107 19.4526 75.637 18.918C76.1632 18.3834 76.4287 17.6042 76.4287 16.5804ZM84.8341 17.778C84.8341 18.6471 84.5842 19.3591 84.0845 19.9178C83.5607 20.492 82.8667 20.7785 82.0001 20.7785C81.1649 20.7785 80.4998 20.504 80.0038 19.9525C79.5089 19.4023 79.2615 18.7082 79.2615 17.8715C79.2615 16.9964 79.5161 16.2784 80.0279 15.7209C80.5397 15.1635 81.2276 14.8842 82.0942 14.8842C82.9295 14.8842 83.6005 15.1587 84.1087 15.7089C84.5915 16.2436 84.8341 16.9341 84.8341 17.778ZM83.5221 17.8187C83.5221 17.2973 83.4086 16.8502 83.1829 16.4773C82.9174 16.0266 82.5396 15.8012 82.0484 15.8012C81.5402 15.8012 81.154 16.0266 80.8885 16.4773C80.6616 16.8502 80.5493 17.3045 80.5493 17.8415C80.5493 18.363 80.6628 18.8101 80.8885 19.1829C81.1625 19.6337 81.5439 19.859 82.0363 19.859C82.5191 19.859 82.8981 19.6301 83.1709 19.1709C83.405 18.7909 83.5221 18.3402 83.5221 17.8187ZM94.316 14.9993L92.5357 20.6502H91.377L90.6396 18.1964C90.4558 17.596 90.3031 16.9866 90.1821 16.3707H90.1592C90.0501 16.9891 89.8972 17.5992 89.7018 18.1964L88.9184 20.6502H87.7465L86.0724 14.9993H87.3723L88.0156 17.6857C88.1713 18.321 88.2993 18.9264 88.4019 19.4994H88.4248C88.5189 19.0271 88.6746 18.4253 88.8943 17.6977L89.7018 15.0005H90.7325L91.5062 17.6401C91.6933 18.2839 91.8453 18.9036 91.9624 19.5006H91.9974C92.0831 18.9192 92.2123 18.2994 92.3837 17.6401L93.074 15.0005H94.316V14.9993ZM100.873 20.6502H99.6086V17.4136C99.6086 16.4162 99.2272 15.9175 98.462 15.9175C98.2882 15.9125 98.1156 15.9469 97.9572 16.0181C97.7989 16.0894 97.659 16.1956 97.5483 16.3287C97.3166 16.5984 97.1917 16.9428 97.1971 17.2973V20.649H95.9321V16.614C95.9321 16.1177 95.9165 15.5795 95.8863 14.9969H96.9979L97.057 15.8804H97.092C97.2393 15.6059 97.459 15.3793 97.7474 15.1983C98.0902 14.9873 98.474 14.8806 98.8941 14.8806C99.4251 14.8806 99.8669 15.0508 100.218 15.3925C100.655 15.8108 100.873 16.4354 100.873 17.2649V20.6502ZM104.362 20.6502H103.098V12.4064H104.362V20.6502ZM111.809 17.778C111.809 18.6471 111.559 19.3591 111.059 19.9178C110.535 20.492 109.84 20.7785 108.975 20.7785C108.138 20.7785 107.473 20.504 106.978 19.9525C106.483 19.4023 106.236 18.7082 106.236 17.8715C106.236 16.9964 106.491 16.2784 107.002 15.7209C107.514 15.1635 108.202 14.8842 109.068 14.8842C109.904 14.8842 110.574 15.1587 111.083 15.7089C111.566 16.2436 111.809 16.9341 111.809 17.778ZM110.495 17.8187C110.495 17.2973 110.382 16.8502 110.156 16.4773C109.892 16.0266 109.513 15.8012 109.023 15.8012C108.514 15.8012 108.127 16.0266 107.863 16.4773C107.636 16.8502 107.524 17.3045 107.524 17.8415C107.524 18.363 107.637 18.8101 107.863 19.1829C108.137 19.6337 108.518 19.859 109.011 19.859C109.494 19.859 109.871 19.6301 110.144 19.1709C110.38 18.7909 110.495 18.3402 110.495 17.8187ZM117.93 20.6502H116.795L116.7 19.9993H116.665C116.277 20.5183 115.723 20.7785 115.003 20.7785C114.466 20.7785 114.032 20.607 113.705 20.2666C113.558 20.1134 113.443 19.9329 113.366 19.7354C113.29 19.5379 113.254 19.3273 113.259 19.1158C113.259 18.4253 113.549 17.8991 114.132 17.5346C114.714 17.1702 115.532 16.9916 116.586 17V16.8945C116.586 16.1501 116.192 15.7785 115.404 15.7785C114.843 15.7785 114.348 15.9187 113.921 16.1968L113.664 15.3721C114.192 15.0472 114.845 14.8842 115.615 14.8842C117.102 14.8842 117.848 15.6634 117.848 17.2218V19.3028C117.848 19.8674 117.876 20.3169 117.93 20.6502ZM116.617 18.7082V17.8367C115.222 17.8128 114.524 18.1928 114.524 18.9755C114.524 19.2704 114.604 19.491 114.767 19.6385C114.937 19.788 115.158 19.867 115.385 19.859C115.662 19.859 115.922 19.7715 116.159 19.5977C116.302 19.4977 116.419 19.3644 116.499 19.2094C116.579 19.0544 116.619 18.8824 116.617 18.7082ZM125.118 20.6502H123.995L123.936 19.7427H123.901C123.543 20.4332 122.932 20.7785 122.074 20.7785C121.388 20.7785 120.817 20.5111 120.365 19.9765C119.912 19.4419 119.687 18.7478 119.687 17.8955C119.687 16.9808 119.932 16.24 120.424 15.6742C120.901 15.1467 121.485 14.883 122.18 14.883C122.944 14.883 123.479 15.1383 123.783 15.6502H123.807V12.4064H125.073V19.1278C125.073 19.678 125.088 20.1851 125.118 20.6502ZM123.807 18.2671V17.3249C123.819 17.1075 123.781 16.8904 123.695 16.69C123.61 16.4895 123.48 16.311 123.315 16.1681C123.081 15.9639 122.779 15.854 122.469 15.86C121.997 15.86 121.627 16.0458 121.356 16.4186C121.087 16.7914 120.95 17.2673 120.95 17.8487C120.95 18.4073 121.079 18.8605 121.339 19.2093C121.613 19.5809 121.982 19.7667 122.444 19.7667C122.86 19.7667 123.192 19.6121 123.444 19.3016C123.688 19.0151 123.807 18.6699 123.807 18.2671ZM135.936 17.778C135.936 18.6471 135.686 19.3591 135.186 19.9178C134.663 20.492 133.97 20.7785 133.102 20.7785C132.268 20.7785 131.603 20.504 131.106 19.9525C130.611 19.4023 130.363 18.7082 130.363 17.8715C130.363 16.9964 130.618 16.2784 131.13 15.7209C131.642 15.1635 132.33 14.8842 133.197 14.8842C134.031 14.8842 134.704 15.1587 135.211 15.7089C135.693 16.2436 135.936 16.9341 135.936 17.778ZM134.625 17.8187C134.625 17.2973 134.512 16.8502 134.286 16.4773C134.019 16.0266 133.643 15.8012 133.15 15.8012C132.643 15.8012 132.257 16.0266 131.99 16.4773C131.763 16.8502 131.651 17.3045 131.651 17.8415C131.651 18.363 131.765 18.8101 131.99 19.1829C132.264 19.6337 132.646 19.859 133.138 19.859C133.621 19.859 134.001 19.6301 134.274 19.1709C134.507 18.7909 134.625 18.3402 134.625 17.8187ZM142.737 20.6502H141.474V17.4136C141.474 16.4162 141.092 15.9175 140.326 15.9175C139.95 15.9175 139.647 16.0542 139.413 16.3287C139.179 16.6032 139.062 16.9269 139.062 17.2973V20.649H137.796V16.614C137.796 16.1177 137.781 15.5795 137.751 14.9969H138.862L138.921 15.8804H138.956C139.111 15.6002 139.337 15.365 139.611 15.1983C139.955 14.9873 140.338 14.8806 140.759 14.8806C141.289 14.8806 141.731 15.0508 142.082 15.3925C142.52 15.8108 142.737 16.4354 142.737 17.2649V20.6502ZM151.25 15.9403H149.857V18.6854C149.857 19.3831 150.105 19.732 150.595 19.732C150.822 19.732 151.01 19.7128 151.158 19.6732L151.191 20.6262C150.941 20.7197 150.613 20.7665 150.208 20.7665C149.709 20.7665 149.32 20.6154 149.039 20.3134C148.756 20.0113 148.616 19.503 148.616 18.7897V15.9403H147.785V14.9993H148.616V13.9636L149.856 13.5919V14.9981H151.249V15.9403H151.25ZM157.946 20.6502H156.68V17.4375C156.68 16.4246 156.299 15.9175 155.535 15.9175C154.948 15.9175 154.547 16.2112 154.328 16.7986C154.286 16.9456 154.266 17.0978 154.269 17.2505V20.649H153.005V12.4064H154.269V15.812H154.293C154.691 15.1923 155.262 14.883 156.002 14.883C156.526 14.883 156.959 15.0532 157.303 15.3949C157.731 15.8204 157.946 16.4534 157.946 17.2901V20.6502ZM164.854 17.5574C164.854 17.7828 164.837 17.9722 164.807 18.1268H161.013C161.03 18.6854 161.211 19.111 161.562 19.4059C161.883 19.6696 162.297 19.8015 162.804 19.8015C163.366 19.8015 163.877 19.7128 164.338 19.5342L164.536 20.4069C163.997 20.6394 163.362 20.7557 162.627 20.7557C161.746 20.7557 161.052 20.498 160.55 19.9825C160.045 19.467 159.795 18.7754 159.795 17.9075C159.795 17.0551 160.028 16.3455 160.498 15.7797C160.988 15.1755 161.65 14.8734 162.487 14.8734C163.305 14.8734 163.927 15.1755 164.347 15.7797C164.686 16.2592 164.854 16.8526 164.854 17.5574ZM163.647 17.2326C163.664 16.8938 163.579 16.5575 163.402 16.2676C163.182 15.9187 162.848 15.7437 162.395 15.7437C162.198 15.7404 162.003 15.7853 161.827 15.8746C161.652 15.9639 161.501 16.0947 161.389 16.2556C161.174 16.54 161.044 16.8785 161.013 17.2326H163.647Z" fill="white"/>
</g>
<defs>
<clipPath id="clip0_1_28">
<rect width="200" height="59" fill="white"/>
</clipPath>
</defs>
</svg>
