<svg width="186" height="55" viewBox="0 0 186 55" fill="none" xmlns="http://www.w3.org/2000/svg">
<g clip-path="url(#clip0_1_98)">
<path d="M179.383 54.9995L6.51553 54.9995C4.78779 54.9955 3.13204 54.3084 1.91085 53.0886C0.689666 51.8689 0.00256995 50.2159 2.30683e-05 48.4916L2.29123e-05 6.49776C0.00257628 4.77439 0.689982 3.12239 1.91144 1.90416C3.1329 0.685937 4.78868 0.000966294 6.51553 -0.000488305L179.383 -0.000488948C182.973 -0.000488961 186 2.91451 186 6.49776L186 48.4916C186 52.0735 182.973 54.9995 179.383 54.9995Z" fill="black"/>
<path d="M184.667 48.4949C184.667 49.1869 184.53 49.8721 184.264 50.5114C183.999 51.1507 183.61 51.7315 183.119 52.2206C182.629 52.7097 182.046 53.0975 181.405 53.3618C180.764 53.6261 180.078 53.7618 179.384 53.7611L6.51587 53.7611C5.11477 53.7626 3.77045 53.2086 2.77855 52.221C1.78666 51.2334 1.22841 49.8931 1.22659 48.4949L1.22659 6.49822C1.22841 5.09931 1.78643 3.75829 2.77813 2.76963C3.76983 1.78096 5.11413 1.22546 6.51587 1.2251L179.383 1.2251C180.077 1.2251 180.764 1.3615 181.405 1.62652C182.046 1.89153 182.628 2.27997 183.119 2.76964C183.609 3.25932 183.998 3.84063 184.264 4.48039C184.529 5.12015 184.665 5.80581 184.665 6.49822L184.667 48.4949Z" fill="black"/>
<path d="M49.9731 25.7983C49.9397 22.0451 53.0135 20.2192 53.154 20.1342C51.4132 17.5688 48.715 17.2183 47.7668 17.1903C45.5006 16.9493 43.3024 18.5609 42.148 18.5609C40.9705 18.5609 39.1928 17.2136 37.2768 17.2532C34.8113 17.2916 32.5048 18.7344 31.2398 20.975C28.6291 25.5433 30.5762 32.2567 33.0774 35.9493C34.3286 37.7578 35.7906 39.777 37.7043 39.706C39.5765 39.628 40.2758 38.4996 42.5351 38.4996C44.7736 38.4996 45.4303 39.706 47.382 39.6606C49.3913 39.628 50.6563 37.8439 51.8637 36.0192C53.3096 33.9464 53.8902 31.905 53.9133 31.8002C53.866 31.7839 50.0111 30.2968 49.9731 25.7983ZM46.2863 14.7612C47.2933 13.4884 47.9822 11.7567 47.791 9.99951C46.3336 10.0647 44.5109 11.0185 43.4614 12.2633C42.5328 13.3603 41.7032 15.1583 41.9175 16.8491C43.5547 16.9726 45.2356 16.0142 46.2863 14.7612ZM77.0672 39.4463L74.4507 39.4463L73.0175 34.8943L68.0358 34.8943L66.6706 39.4463L64.1233 39.4463L69.0589 23.9491L72.1074 23.9491L77.0672 39.4463ZM72.5855 32.9845L71.2894 28.9378C71.1523 28.5244 70.8953 27.5509 70.5163 26.0184L70.4702 26.0184C70.2404 26.9948 69.9976 27.968 69.7421 28.9378L68.469 32.9845L72.5855 32.9845ZM89.76 33.7216C89.76 35.6221 89.2519 37.1243 88.2357 38.2271C87.3255 39.2087 86.1953 39.699 84.8462 39.699C83.3899 39.699 82.3438 39.1703 81.7067 38.1129L81.6606 38.1129L81.6606 43.9995L79.2043 43.9995L79.2043 31.9504C79.2043 30.7556 79.1732 29.5294 79.1133 28.2717L81.2735 28.2717L81.4106 30.0429L81.4567 30.0429C82.2759 28.7084 83.519 28.0423 85.1872 28.0423C86.4914 28.0423 87.5802 28.5629 88.4512 29.6051C89.3245 30.6485 89.76 32.0203 89.76 33.7216ZM87.2576 33.8124C87.2576 32.7248 87.0156 31.8281 86.5294 31.1224C85.9983 30.3865 85.2852 30.0185 84.3911 30.0185C83.7851 30.0185 83.2344 30.2234 82.7425 30.6275C82.2494 31.0351 81.9268 31.5673 81.7758 32.2264C81.6998 32.5338 81.6618 32.7853 81.6618 32.9833L81.6618 34.8465C81.6618 35.6593 81.9083 36.3452 82.4014 36.9054C82.8945 37.4655 83.5351 37.745 84.3232 37.745C85.2483 37.745 85.9684 37.384 86.4834 36.6643C86.9995 35.9435 87.2576 34.9932 87.2576 33.8124ZM102.476 33.7216C102.476 35.6221 101.968 37.1243 100.95 38.2271C100.041 39.2087 98.9111 39.699 97.562 39.699C96.1058 39.699 95.0596 39.1703 94.4237 38.1129L94.3776 38.1129L94.3776 43.9995L91.9213 43.9995L91.9213 31.9504C91.9213 30.7556 91.8902 29.5294 91.8303 28.2717L93.9905 28.2717L94.1276 30.0429L94.1737 30.0429C94.9917 28.7084 96.2348 28.0423 97.9042 28.0423C99.2072 28.0423 100.296 28.5629 101.169 29.6051C102.039 30.6485 102.476 32.0203 102.476 33.7216ZM99.9734 33.8124C99.9734 32.7248 99.7303 31.8281 99.2441 31.1224C98.713 30.3865 98.0021 30.0185 97.1069 30.0185C96.5031 30.0183 95.9187 30.234 95.4571 30.6275C94.964 31.0351 94.6426 31.5673 94.4917 32.2264C94.4168 32.5338 94.3776 32.7853 94.3776 32.9833L94.3776 34.8465C94.3776 35.6593 94.6241 36.3452 95.1149 36.9054C95.608 37.4643 96.2486 37.745 97.039 37.745C97.9641 37.745 98.6842 37.384 99.1992 36.6643C99.7153 35.9435 99.9734 34.9932 99.9734 33.8124ZM116.693 35.1004C116.693 36.4186 116.24 37.4911 115.331 38.3191C114.332 39.2239 112.942 39.6757 111.155 39.6757C109.505 39.6757 108.182 39.3543 107.181 38.7103L107.75 36.641C108.828 37.3001 110.012 37.6308 111.301 37.6308C112.226 37.6308 112.946 37.4189 113.463 36.9973C113.978 36.5758 114.235 36.0099 114.235 35.3042C114.235 34.6753 114.023 34.1455 113.598 33.7158C113.175 33.2861 112.469 32.8867 111.483 32.5175C108.799 31.5056 107.457 30.0231 107.457 28.0738C107.457 26.7998 107.928 25.7552 108.869 24.9424C109.807 24.1284 111.058 23.722 112.622 23.722C114.018 23.722 115.177 23.9677 116.102 24.458L115.488 26.4819C114.624 26.0068 113.647 25.7692 112.553 25.7692C111.689 25.7692 111.014 25.9846 110.53 26.4132C110.334 26.5886 110.177 26.8048 110.071 27.047C109.966 27.2892 109.912 27.5516 109.916 27.8164C109.916 28.4289 110.15 28.9355 110.62 29.3338C111.029 29.7017 111.772 30.1 112.85 30.5297C114.17 31.0665 115.139 31.6942 115.762 32.4139C116.383 33.1312 116.693 34.029 116.693 35.1004ZM124.814 30.1349L122.107 30.1349L122.107 35.5604C122.107 36.9403 122.583 37.6297 123.54 37.6297C123.979 37.6297 124.343 37.5912 124.631 37.5144L124.699 39.3997C124.215 39.5825 123.578 39.6745 122.789 39.6745C121.818 39.6745 121.06 39.3753 120.513 38.7779C119.968 38.1793 119.694 37.1755 119.694 35.7653L119.694 30.1326L118.081 30.1326L118.081 28.2694L119.694 28.2694L119.694 26.2234L122.107 25.4874L122.107 28.2694L124.814 28.2694L124.814 30.1349ZM137.03 33.767C137.03 35.4847 136.544 36.8949 135.574 37.9977C134.556 39.133 133.206 39.699 131.523 39.699C129.901 39.699 128.609 39.1552 127.646 38.0675C126.683 36.9799 126.201 35.6069 126.201 33.9522C126.201 32.2206 126.697 30.8022 127.691 29.6994C128.683 28.5955 130.021 28.0435 131.705 28.0435C133.327 28.0435 134.632 28.5873 135.617 29.6761C136.56 30.7323 137.03 32.096 137.03 33.767ZM134.481 33.8474C134.481 32.8168 134.264 31.9329 133.822 31.1958C133.307 30.3038 132.571 29.8589 131.617 29.8589C130.63 29.8589 129.88 30.305 129.365 31.1958C128.924 31.9341 128.706 32.8319 128.706 33.894C128.706 34.9245 128.924 35.8084 129.365 36.5444C129.896 37.4364 130.638 37.8812 131.595 37.8812C132.533 37.8812 133.269 37.4271 133.8 36.5211C134.253 35.77 134.481 34.8768 134.481 33.8474ZM145.014 30.4552C144.758 30.4085 144.499 30.3855 144.24 30.3865C143.376 30.3865 142.707 30.716 142.237 31.3763C141.828 31.9585 141.623 32.6945 141.623 33.583L141.623 39.4463L139.168 39.4463L139.191 31.7909C139.191 30.5029 139.16 29.3303 139.099 28.2729L141.238 28.2729L141.328 30.4109L141.396 30.4109C141.655 29.6761 142.064 29.0846 142.624 28.6409C143.137 28.2532 143.76 28.0432 144.4 28.0423C144.627 28.0423 144.832 28.0586 145.014 28.0877L145.014 30.4552ZM155.999 33.3303C156.005 33.7077 155.975 34.0849 155.909 34.4564L148.54 34.4564C148.569 35.5604 148.925 36.4046 149.61 36.9869C150.231 37.5074 151.034 37.7683 152.02 37.7683C153.111 37.7683 154.106 37.5924 155.001 37.2396L155.386 38.963C154.34 39.4242 153.105 39.6536 151.68 39.6536C149.966 39.6536 148.62 39.1435 147.641 38.1246C146.664 37.1056 146.174 35.7374 146.174 34.0209C146.174 32.3358 146.629 30.9326 147.54 29.8135C148.494 28.6188 149.784 28.0214 151.406 28.0214C152.999 28.0214 154.205 28.6188 155.025 29.8135C155.673 30.7626 155.999 31.9364 155.999 33.3303ZM153.657 32.6864C153.673 31.9504 153.513 31.3146 153.18 30.7777C152.755 30.0872 152.102 29.7425 151.223 29.7425C150.42 29.7425 149.766 30.079 149.267 30.7545C148.858 31.2913 148.615 31.9353 148.54 32.6852L153.657 32.6852L153.657 32.6864ZM71.7732 14.4153C71.7732 15.7859 71.3666 16.8177 70.5543 17.5106C69.802 18.1499 68.7328 18.4701 67.348 18.4701C66.6613 18.4701 66.0738 18.4398 65.5818 18.3793L65.5818 10.8904C66.2235 10.7856 66.9148 10.732 67.6614 10.732C68.9805 10.732 69.9748 11.0219 70.6453 11.6019C71.3965 12.2575 71.7732 13.1949 71.7732 14.4153ZM70.5002 14.4491C70.5002 13.5606 70.2674 12.8793 69.802 12.4042C69.3365 11.9303 68.6568 11.6927 67.7616 11.6927C67.3814 11.6927 67.0577 11.7183 66.7892 11.7719L66.7892 17.4651C66.9379 17.4884 67.2097 17.4989 67.6049 17.4989C68.5289 17.4989 69.2421 17.2392 69.7444 16.7199C70.2467 16.2005 70.5002 15.4436 70.5002 14.4491ZM78.5234 15.6124C78.5234 16.4567 78.285 17.1484 77.808 17.6911C77.308 18.2489 76.6455 18.5272 75.8183 18.5272C75.021 18.5272 74.3862 18.2605 73.9127 17.7248C73.4403 17.1903 73.2042 16.5161 73.2042 15.7032C73.2042 14.8532 73.4473 14.1556 73.9357 13.6141C74.4242 13.0726 75.0809 12.8013 75.9082 12.8013C76.7054 12.8013 77.346 13.068 77.831 13.6025C78.2919 14.1219 78.5234 14.7926 78.5234 15.6124ZM77.2711 15.652C77.2711 15.1455 77.1628 14.7111 76.9474 14.3489C76.6939 13.9111 76.3333 13.6922 75.8644 13.6922C75.3793 13.6922 75.0107 13.9111 74.7572 14.3489C74.5406 14.7111 74.4335 15.1524 74.4335 15.6741C74.4335 16.1807 74.5418 16.6151 74.7572 16.9772C75.0187 17.4151 75.3828 17.634 75.8529 17.634C76.3137 17.634 76.6755 17.4116 76.9358 16.9656C77.1593 16.5964 77.2711 16.1586 77.2711 15.652ZM87.5744 12.9131L85.875 18.4026L84.769 18.4026L84.0651 16.0188C83.8896 15.4356 83.7439 14.8436 83.6284 14.2453L83.6065 14.2453C83.5024 14.8461 83.3565 15.4387 83.1699 16.0188L82.4222 18.4026L81.3035 18.4026L79.7055 12.9131L80.9463 12.9131L81.5604 15.5227C81.709 16.1399 81.8311 16.728 81.9291 17.2846L81.951 17.2846C82.0408 16.8258 82.1894 16.2412 82.3991 15.5344L83.1699 12.9143L84.1538 12.9143L84.8923 15.4785C85.0709 16.1038 85.216 16.7059 85.3278 17.2858L85.3612 17.2858C85.443 16.721 85.5663 16.119 85.7299 15.4785L86.3889 12.9143L87.5744 12.9143L87.5744 12.9131ZM93.8338 18.4026L92.6264 18.4026L92.6264 15.2584C92.6264 14.2895 92.2623 13.8051 91.5319 13.8051C91.366 13.8002 91.2012 13.8336 91.0501 13.9028C90.899 13.9721 90.7654 14.0752 90.6597 14.2045C90.4386 14.4666 90.3194 14.8011 90.3245 15.1455L90.3245 18.4014L89.1171 18.4014L89.1171 14.4817C89.1171 13.9996 89.1021 13.4767 89.0733 12.9108L90.1344 12.9108L90.1908 13.769L90.2243 13.769C90.3648 13.5023 90.5745 13.2822 90.8498 13.1064C91.177 12.9015 91.5434 12.7978 91.9443 12.7978C92.4513 12.7978 92.8729 12.9632 93.2082 13.2951C93.6253 13.7015 93.8338 14.3082 93.8338 15.114L93.8338 18.4026ZM97.1634 18.4026L95.9571 18.4026L95.9571 10.3943L97.1634 10.3943L97.1634 18.4026ZM104.272 15.6124C104.272 16.4567 104.033 17.1484 103.556 17.6911C103.056 18.2489 102.393 18.5272 101.567 18.5272C100.768 18.5272 100.134 18.2605 99.6612 17.7248C99.1888 17.1903 98.9526 16.5161 98.9526 15.7032C98.9526 14.8532 99.1957 14.1556 99.6842 13.6141C100.173 13.0726 100.829 12.8013 101.655 12.8013C102.454 12.8013 103.093 13.068 103.579 13.6025C104.04 14.1219 104.272 14.7926 104.272 15.6124ZM103.018 15.652C103.018 15.1455 102.91 14.7111 102.695 14.3489C102.442 13.9111 102.081 13.6922 101.613 13.6922C101.127 13.6922 100.758 13.9111 100.506 14.3489C100.289 14.7111 100.182 15.1524 100.182 15.6741C100.182 16.1807 100.29 16.6151 100.506 16.9772C100.767 17.4151 101.131 17.634 101.601 17.634C102.062 17.634 102.423 17.4116 102.683 16.9656C102.908 16.5964 103.018 16.1586 103.018 15.652ZM110.115 18.4026L109.031 18.4026L108.941 17.7702L108.908 17.7702C108.537 18.2745 108.008 18.5272 107.322 18.5272C106.809 18.5272 106.394 18.3606 106.082 18.0299C105.942 17.8811 105.832 17.7057 105.759 17.5139C105.686 17.322 105.651 17.1175 105.657 16.912C105.657 16.2412 105.933 15.73 106.49 15.376C107.045 15.022 107.826 14.8485 108.832 14.8567L108.832 14.7542C108.832 14.031 108.456 13.67 107.704 13.67C107.168 13.67 106.696 13.8063 106.288 14.0764L106.043 13.2753C106.547 12.9597 107.171 12.8013 107.906 12.8013C109.325 12.8013 110.037 13.5582 110.037 15.0721L110.037 17.0937C110.037 17.6421 110.064 18.0788 110.115 18.4026ZM108.862 16.5161L108.862 15.6695C107.53 15.6462 106.864 16.0153 106.864 16.7758C106.864 17.0622 106.94 17.2765 107.096 17.4197C107.258 17.565 107.469 17.6417 107.686 17.634C107.951 17.634 108.198 17.549 108.424 17.3801C108.561 17.283 108.673 17.1535 108.749 17.0029C108.825 16.8523 108.864 16.6852 108.862 16.5161ZM116.976 18.4026L115.905 18.4026L115.848 17.521L115.815 17.521C115.473 18.1918 114.89 18.5272 114.071 18.5272C113.416 18.5272 112.871 18.2675 112.439 17.7481C112.007 17.2287 111.792 16.5545 111.792 15.7265C111.792 14.838 112.026 14.1184 112.496 13.5687C112.951 13.0563 113.508 12.8001 114.172 12.8001C114.901 12.8001 115.412 13.0482 115.702 13.5454L115.725 13.5454L115.725 10.3943L116.934 10.3943L116.934 16.9236C116.934 17.4582 116.947 17.9507 116.976 18.4026ZM115.725 16.0875L115.725 15.1722C115.736 14.9611 115.7 14.7502 115.618 14.5555C115.537 14.3607 115.413 14.1874 115.255 14.0485C115.032 13.8501 114.744 13.7434 114.447 13.7492C113.997 13.7492 113.644 13.9297 113.385 14.2919C113.128 14.654 112.998 15.1163 112.998 15.6811C112.998 16.2238 113.121 16.664 113.369 17.0028C113.63 17.3638 113.983 17.5443 114.424 17.5443C114.821 17.5443 115.137 17.3941 115.378 17.0925C115.611 16.8142 115.725 16.4788 115.725 16.0875ZM127.303 15.6124C127.303 16.4567 127.064 17.1484 126.587 17.6911C126.087 18.2489 125.426 18.5272 124.597 18.5272C123.801 18.5272 123.166 18.2605 122.692 17.7248C122.219 17.1903 121.983 16.5161 121.983 15.7032C121.983 14.8532 122.226 14.1556 122.715 13.6141C123.203 13.0726 123.86 12.8013 124.688 12.8013C125.484 12.8013 126.126 13.068 126.61 13.6025C127.071 14.1219 127.303 14.7926 127.303 15.6124ZM126.051 15.652C126.051 15.1455 125.943 14.7111 125.728 14.3489C125.473 13.9111 125.114 13.6922 124.643 13.6922C124.16 13.6922 123.791 13.9111 123.536 14.3489C123.32 14.7111 123.213 15.1524 123.213 15.6741C123.213 16.1807 123.321 16.6151 123.536 16.9772C123.798 17.4151 124.162 17.634 124.632 17.634C125.093 17.634 125.456 17.4116 125.716 16.9656C125.938 16.5964 126.051 16.1586 126.051 15.652ZM133.795 18.4026L132.588 18.4026L132.588 15.2584C132.588 14.2895 132.224 13.8051 131.493 13.8051C131.134 13.8051 130.845 13.9379 130.622 14.2045C130.398 14.4712 130.286 14.7856 130.286 15.1455L130.286 18.4014L129.078 18.4014L129.078 14.4817C129.078 13.9996 129.064 13.4767 129.035 12.9108L130.095 12.9108L130.152 13.769L130.185 13.769C130.333 13.4968 130.549 13.2684 130.811 13.1064C131.139 12.9015 131.504 12.7978 131.906 12.7978C132.412 12.7978 132.834 12.9632 133.169 13.2951C133.587 13.7015 133.795 14.3082 133.795 15.114L133.795 18.4026ZM141.92 13.8272L140.591 13.8272L140.591 16.4939C140.591 17.1717 140.827 17.5106 141.295 17.5106C141.511 17.5106 141.691 17.4919 141.833 17.4535L141.864 18.3793C141.626 18.4701 141.312 18.5155 140.926 18.5155C140.449 18.5155 140.078 18.3688 139.81 18.0753C139.54 17.7819 139.407 17.2881 139.407 16.5953L139.407 13.8272L138.613 13.8272L138.613 12.9131L139.407 12.9131L139.407 11.907L140.59 11.546L140.59 12.9119L141.919 12.9119L141.919 13.8272L141.92 13.8272ZM148.312 18.4026L147.104 18.4026L147.104 15.2817C147.104 14.2977 146.74 13.8051 146.01 13.8051C145.451 13.8051 145.068 14.0904 144.858 14.661C144.819 14.8038 144.8 14.9517 144.802 15.1L144.802 18.4014L143.596 18.4014L143.596 10.3943L144.802 10.3943L144.802 13.7026L144.825 13.7026C145.205 13.1006 145.75 12.8001 146.456 12.8001C146.956 12.8001 147.37 12.9655 147.698 13.2974C148.107 13.7108 148.312 14.3256 148.312 15.1385L148.312 18.4026ZM154.906 15.3981C154.906 15.6171 154.89 15.8011 154.861 15.9513L151.24 15.9513C151.256 16.4939 151.429 16.9073 151.764 17.1938C152.071 17.45 152.466 17.5781 152.95 17.5781C153.485 17.5781 153.974 17.4919 154.414 17.3184L154.603 18.1662C154.088 18.3921 153.482 18.505 152.78 18.505C151.939 18.505 151.277 18.2547 150.797 17.7539C150.316 17.2532 150.077 16.5813 150.077 15.7382C150.077 14.9102 150.3 14.2208 150.748 13.6712C151.216 13.0843 151.848 12.7908 152.647 12.7908C153.428 12.7908 154.021 13.0843 154.422 13.6712C154.746 14.137 154.906 14.7134 154.906 15.3981ZM153.754 15.0826C153.771 14.7535 153.689 14.4268 153.52 14.1451C153.31 13.8063 152.991 13.6363 152.559 13.6363C152.371 13.633 152.185 13.6767 152.017 13.7634C151.849 13.8501 151.706 13.9772 151.598 14.1335C151.393 14.4098 151.269 14.7386 151.24 15.0826L153.754 15.0826Z" fill="white"/>
</g>
<defs>
<clipPath id="clip0_1_98">
<rect width="186" height="55" fill="white" transform="translate(2.28882e-05 -0.000488281)"/>
</clipPath>
</defs>
</svg>
