<svg width="73" height="67" viewBox="0 0 73 67" fill="none" xmlns="http://www.w3.org/2000/svg">
<path fill-rule="evenodd" clip-rule="evenodd" d="M65.1465 38.4717C64.6371 38.5396 64.3959 38.572 64.0653 38.6157L63.7544 38.3763C63.0679 38.4347 62.4058 38.4988 61.7429 38.5454C61.1836 38.5848 60.6182 38.5721 60.0634 38.6413C59.4454 38.7188 58.824 38.7236 58.2018 38.8309C57.6405 38.9282 57.0672 39.1944 56.4937 39.0817C55.8273 38.9493 55.2758 39.3618 54.6379 39.3507C54.0488 39.3403 53.4581 39.44 52.8696 39.4914C52.8713 39.5046 52.8831 39.5931 52.8971 39.7033C51.1641 40.0863 49.4135 40.4281 47.7491 41.3529C47.702 41.3385 47.5429 41.291 47.3474 41.2323C47.3496 41.3585 47.3515 41.4738 47.3539 41.5925C46.421 42.0195 45.4979 42.5128 44.5562 42.9099C43.3965 43.3986 42.3651 44.1525 41.1177 44.4692C40.4913 44.6283 39.8788 45.0032 39.3767 45.4206C39.0694 45.6767 38.9164 45.4613 38.6661 45.4518C38.6504 45.6029 38.634 45.754 38.613 45.9567C37.8735 46.2951 37.1124 46.6437 36.3283 47.0027C36.2911 46.7927 36.269 46.6656 36.2334 46.465C35.8281 46.4481 35.4127 46.1132 34.7943 46.6905C34.9305 46.2789 35.0147 46.0243 35.1185 45.7109C34.5994 45.7988 34.3954 45.8331 34.1382 45.8764C34.1188 46.0534 34.1012 46.2192 34.0814 46.4016C33.8594 46.4951 33.6049 46.603 33.3595 46.7066C33.2825 46.6254 33.1657 46.5523 33.174 46.5025C33.2409 46.1339 33.3328 45.7694 33.416 45.4065C32.9809 44.9232 32.6445 45.4551 32.2649 45.5048C32.2532 45.4151 32.242 45.3258 32.2255 45.2019C32.0506 45.1684 31.8644 45.1326 31.6684 45.0948C31.6874 44.6974 31.7051 44.3228 31.7307 43.7911C32.3462 42.8539 33.1425 41.8303 33.7118 40.6931C34.0065 40.106 34.5235 39.6026 34.6501 39.0185C34.8077 38.2933 35.4578 37.9468 35.6306 37.3408C35.8218 36.6728 36.3672 36.2406 36.5772 35.6545C36.8076 35.011 37.3269 34.56 37.5385 33.9751C38.0418 32.5827 39.0268 31.4099 39.3229 29.9342C39.819 29.5578 39.7701 28.7624 40.4225 28.5063C40.4908 27.7737 40.8464 27.1496 41.1613 26.5068C41.6061 25.5996 41.7463 24.5634 42.3754 23.7254C42.553 23.4883 42.5482 23.1145 42.676 22.6083C41.6128 23.3882 40.7 24.0571 39.5839 24.8757C39.4637 24.8782 39.0645 24.8859 38.6618 24.8934C38.5118 25.2749 38.4064 25.5433 38.2935 25.8296C37.1791 26.507 36.2471 27.6506 34.7948 27.8796C34.9435 28.513 34.28 28.7437 34.1225 29.1763C32.6616 29.8694 31.6597 31.043 30.3334 32.0906C30.3075 32.0925 30.0843 32.1113 29.8718 32.129C29.3398 32.4552 29.2011 33.1274 28.5393 33.3681C28.059 33.5421 27.613 34.0246 27.3332 34.4813C26.9916 35.0385 26.4679 35.4312 25.983 35.6573C25.3809 35.9383 25.2152 36.4897 24.7217 36.8699C24.569 36.883 24.3454 36.9022 24.0356 36.9287C23.3171 38.0654 22.2833 38.9793 21.3422 40.0259C21.1249 40.0248 20.9078 40.0233 20.6275 40.0219L19.7825 41.1193C19.728 40.8604 19.7032 40.7407 19.6514 40.4913C19.2816 41.0812 18.7478 41.1703 18.1136 41.1478C18.0578 41.0141 17.9933 40.86 17.9381 40.7294C16.9705 40.8421 15.9767 40.9577 15.0699 41.0635C14.8483 40.7634 14.6806 40.5355 14.4637 40.2415C14.486 40.1355 14.5279 39.9365 14.5696 39.7379L14.3188 39.5447C14.195 39.6276 14.0585 39.7188 13.8508 39.8577C13.183 39.4178 13.0525 38.7209 12.9949 38C13.2935 37.4378 13.2935 37.4378 12.9342 36.6215C12.886 36.9521 12.8676 37.0774 12.8389 37.2722C12.7233 37.2226 12.5917 37.1669 12.4095 37.0885C12.5581 36.8209 12.6804 36.6012 12.8315 36.3286C12.6608 36.331 12.5476 36.332 12.4636 36.333C12.2246 35.5262 11.985 34.7177 11.7168 33.8115L12.0837 33.3351C11.8766 33.345 11.7555 33.3505 11.5912 33.3584C11.6449 33.201 11.696 33.0527 11.7631 32.8568L11.3097 32.5077C11.2778 32.2618 11.255 32.0835 11.2317 31.9043C11.6048 31.8209 11.9337 31.4726 12.366 31.7149C12.1524 31.0058 11.6072 31.2868 11.0476 31.3023C11.1923 31.0762 11.305 30.8997 11.4237 30.7148C11.1887 30.1099 11.0828 29.4638 10.4916 28.9804C9.99808 28.5772 10.1349 27.8848 10.3162 27.2247C10.143 27.2214 10.0382 27.2195 9.82941 27.2162C9.93923 26.9957 10.0371 26.8003 10.162 26.5514C10.1059 26.5194 10.0228 26.4723 9.77627 26.3312C9.64909 25.9151 9.57628 25.2757 9.27261 24.7761C8.84005 24.0647 9.15243 23.2336 8.69741 22.5125C8.29842 21.8801 8.09728 21.1175 7.95734 20.3339C7.76663 19.2654 7.32188 18.2427 6.96158 17.1249L6.50943 17.7121C6.5746 17.8385 6.66819 18.0206 6.79552 18.2694C6.57342 18.3516 6.3789 18.4231 6.14675 18.5094C6.09625 18.9038 6.0011 19.3188 6.00306 19.7336C6.00438 20.081 5.72924 20.4781 6.12616 20.7819C5.70719 21.1051 5.83978 21.5549 5.88937 21.9719C5.76254 21.988 5.67361 21.9996 5.60414 22.0086C5.78108 23.5366 5.51237 25.0166 5.13377 26.4882C5.20921 26.9764 5.28424 27.4644 5.35835 27.9478L5.08513 28.3026C5.05915 29.0354 5.03668 29.6727 5.0115 30.398C4.69886 30.3542 4.47691 30.3233 4.19058 30.2835C4.12918 30.7245 4.07179 31.1392 4.01855 31.5234C4.34941 31.6694 4.63464 31.7959 4.91752 31.9206C4.85144 32.8857 4.79092 33.7713 4.7134 34.9039C4.37139 34.4898 4.42751 34.1904 4.35666 33.8952C3.77202 34.1177 4.15651 34.5651 4.10596 34.8938C3.94951 34.9402 3.79358 34.9852 3.45972 35.0826C3.61999 35.2886 3.76973 35.4814 3.91946 35.6743C3.82447 35.688 3.72947 35.7018 3.63487 35.7158C3.8338 35.7408 4.03274 35.7659 4.25185 35.7939C4.17432 36.1869 4.11015 36.5113 4.04643 36.8312C3.87737 36.8648 3.74893 36.8903 3.61046 36.9175C3.62112 37.0376 3.63168 37.1651 3.64603 37.33C3.97927 37.4997 4.33306 37.6809 4.65606 37.8452C4.49994 39.0961 4.35074 40.2861 4.20194 41.4763C4.15014 41.4827 4.09843 41.4898 4.04732 41.4961C4.01044 41.3726 3.97327 41.2496 3.88173 40.9446C3.56485 41.5616 3.30353 42.0706 2.99995 42.6621C2.49602 42.4672 2.03035 42.2868 1.35448 42.0246C1.33053 42.0305 1.07099 42.0964 0.74167 42.1798C0.872578 40.5662 0.650057 39.0462 0.536474 37.5382C0.379433 35.451 0.618371 33.391 0.594519 31.3175C0.569474 29.1587 0.83103 26.9955 0.960687 24.8339C1.035 23.6032 1.07111 22.3693 1.16929 21.14C1.30757 19.4146 1.41996 17.683 1.68028 15.9752C1.79518 15.2228 1.63054 14.472 1.89383 13.7063C2.11998 13.0489 2.00689 12.2734 2.03581 11.5498C2.11015 9.70199 2.23874 7.85842 2.1041 6.00348C2.01573 4.79564 2.08645 3.57526 2.08574 2.18295L3.07013 0.904638C3.38775 1.13359 3.81453 1.27031 3.89169 1.87242C4.13979 1.61519 4.37134 1.37459 4.59013 1.14731C5.86105 1.31071 6.87337 1.94959 7.8691 2.93396C7.86355 3.08974 7.85245 3.40131 7.833 3.97218C7.81267 4.04405 7.71211 4.40115 7.59083 4.82982C8.01949 4.96735 8.34129 5.07072 8.64463 5.16802C8.81005 5.74806 9.01552 6.31832 9.12753 6.90601C9.22331 7.4068 9.80327 7.82527 9.21317 8.43811C9.49253 8.40253 9.58176 8.39059 9.74819 8.36932C9.55691 9.01231 10.4349 9.49025 9.92148 10.1765C10.0919 10.3433 10.2448 10.493 10.4261 10.6701C10.3785 10.7741 10.3262 10.8883 10.2681 11.0149C11.1679 12.4787 11.4684 14.1669 11.8913 15.8456C11.9698 15.906 12.1321 15.9672 12.1744 16.0748C12.3442 16.5094 12.6805 17.0154 12.5768 17.3895C12.4078 17.9971 13.1192 18.5055 12.6014 19.0821C12.8489 19.2965 13.0786 19.4952 13.3248 19.708C13.2768 19.8605 13.2268 20.0188 13.1657 20.2126C13.2858 20.3157 13.4177 20.4285 13.6206 20.6035C13.666 21.043 13.719 21.5539 13.7816 22.1586C13.4541 22.0871 13.261 22.0447 12.9934 21.9855C13.1238 22.3723 13.2415 22.7212 13.3596 23.0704C13.5175 23.0863 13.6745 23.1015 13.9256 23.1254C13.8961 23.3741 13.8199 23.6086 13.858 23.823C13.8911 24.0105 14.0531 24.1752 14.1564 24.3473C14.2951 24.3547 14.4629 24.3633 14.7482 24.3785C14.7161 24.637 14.6879 24.8579 14.6415 25.2298C14.5716 25.2816 14.3419 25.4524 14.0807 25.6464L14.5144 25.9803C14.4283 26.4949 14.364 26.8536 14.7575 27.3161C15.4265 28.102 15.7427 29.1414 16.1818 30.0854C16.2493 30.2299 16.1213 30.4652 16.0836 30.6563C16.227 30.6511 16.3459 30.6469 16.3339 30.6471C16.4535 31.2168 16.6403 31.7333 16.6495 32.2531C16.6596 32.7817 16.4942 33.3139 16.3827 33.9783C16.5431 34.2538 16.7778 34.0757 17.1064 33.4046C17.1183 34.0103 17.1225 34.2135 17.127 34.4602C16.9565 34.5428 16.781 34.6277 16.447 34.7894C16.8322 34.9022 17.0908 34.9781 17.3827 35.0635C17.412 35.1699 17.447 35.2925 17.503 35.4926C17.6735 35.4644 17.9788 35.4975 18.0434 35.3885C18.3591 34.8551 18.8758 34.6672 19.3431 34.4574C19.7407 33.5156 20.7021 33.1619 21.3438 32.4975C22.0495 31.7654 22.8046 31.0577 23.6359 30.4799C24.4314 29.9258 25.2603 29.3812 25.9011 28.6904C26.5811 27.9568 27.4211 27.4538 28.1376 26.7839C28.868 26.1009 29.7027 25.5164 30.5452 24.9704C31.3575 24.4449 32.0191 23.7408 32.8478 23.2216C33.6899 22.694 34.5193 22.0829 35.2597 21.4195C35.9938 20.7618 36.8689 20.3553 37.6244 19.7542C38.377 19.1552 39.1596 18.5912 39.9563 18.0518C40.7833 17.4919 41.6473 16.9869 42.4868 16.4448C43.2937 15.9239 44.0904 15.3863 44.9591 14.8111C45.2933 14.7677 45.7347 14.71 46.1703 14.6534C46.1917 14.7668 46.217 14.8957 46.2388 15.0119C46.6714 15.3975 46.9702 15.0006 47.2547 14.8795C47.78 15.149 48.2719 15.4009 48.8036 15.6734C48.8147 15.7401 48.837 15.8711 48.8574 15.9924C49.8021 15.9234 49.9862 16.6716 50.1611 17.3108C50.3372 17.9566 50.3546 18.6453 50.4476 19.3615C49.7981 20.5038 49.9449 22.0424 48.7228 22.9751C48.8559 23.1295 48.9382 23.2247 49.0762 23.3841C48.693 24.0969 48.2871 24.8504 47.8278 25.7034C47.8468 25.7299 47.9404 25.8601 48.0098 25.9567C47.7171 26.6779 47.4501 27.3858 47.1401 28.0742C47.018 28.3447 46.8505 28.6978 46.6143 28.7935C46.014 29.0371 45.7313 29.4083 45.6483 30.0479C45.6102 30.3417 45.3313 30.6033 45.3142 30.9835L45.9607 30.144C46.0426 30.3039 46.1153 30.4037 46.0988 30.421C45.6162 30.9422 45.4312 31.6232 45.2117 32.2557C45.027 32.7887 44.7351 33.3229 44.3247 33.4977C43.7925 33.7244 43.6963 34.1992 43.114 34.5892C43.4563 34.6002 43.5556 34.6036 43.6564 34.6067C43.5754 35.5554 43.4848 35.9077 42.8549 36.2166C42.3508 36.4637 42.2486 36.9139 42.0519 37.3552C42.3029 37.0958 42.5539 36.8364 42.9856 36.3904C42.5996 37.1961 42.3284 37.7618 41.9456 38.56C44.0116 37.4556 46.0528 37.0068 48.02 36.3415C50.0238 35.6637 51.1142 35.4705 52.8677 35.4529C53.1862 35.4493 53.4989 35.243 53.8216 35.2152C54.3807 35.168 54.9519 35.2341 55.507 35.1644C56.0165 35.1004 56.5062 34.8404 57.0145 34.8054C58.3597 34.7141 59.7143 34.8468 61.0608 34.6652C61.1927 34.6474 61.354 34.8415 61.518 34.9484C61.7284 34.8692 61.9617 34.6993 62.1867 34.71C63.2864 34.7622 64.3954 34.7891 65.4772 34.97C66.3369 35.1137 67.2073 35.1875 68.071 35.4031C68.9245 35.6158 69.6161 36.0784 70.388 36.3864C71.1864 36.7055 71.7532 37.4277 72.1925 38.2731C70.9599 38.5268 71.2366 39.8734 70.6041 40.6005C70.9082 40.2633 71.2126 39.9256 71.517 39.588C71.5712 39.6353 71.6255 39.6834 71.6797 39.7307L71.1341 40.4391C70.9691 40.6534 70.8006 40.865 70.6402 41.0822C70.461 41.3263 70.1856 41.5362 70.3304 41.9035C69.9127 41.7931 70.0846 42.3363 69.8414 42.3622C69.4054 42.4097 69.8484 42.9328 69.4401 43.0198C69.2147 43.0681 69.0031 43.2698 68.83 43.4459C68.616 43.6637 68.4484 43.9267 68.2783 44.1477C68.052 44.0729 67.8945 44.021 67.6453 43.9385C67.784 44.149 67.8715 44.2821 67.9941 44.4672C67.9166 44.5882 67.8253 44.7311 67.6755 44.9646C67.3118 45.0122 66.8808 45.0685 66.4935 45.1192C66.3578 45.3166 66.2597 45.4593 66.17 45.5897C66.2789 45.7617 66.3674 45.9017 66.4903 46.0952C66.2426 46.0426 66.053 46.0022 65.8631 45.9623L65.6823 46.197C65.7698 46.3675 65.8631 46.55 65.9666 46.751C65.2922 47.2127 64.5638 47.5658 64.0619 48.2509C63.8344 48.5609 63.3731 48.6996 62.979 48.9395C62.9793 48.9309 62.9794 49.0111 62.9795 49.1337C62.4204 49.5616 61.8412 50.0053 61.1273 50.5515C61.1172 50.1742 61.1105 49.9222 61.1041 49.6877C60.7933 49.9923 60.6455 50.2387 60.5096 50.6936C60.4684 50.705 60.428 50.7208 60.3855 50.7281C60.2966 50.7421 60.2071 50.752 60.1025 50.7652C60.1178 50.8533 60.1351 50.9404 60.1476 51.0281C60.1535 51.0708 60.1507 51.115 60.1515 51.1619C59.8427 51.3729 59.5315 51.5854 59.1227 51.8645L58.1816 51.1398C58.1208 51.1699 58.0605 51.2003 57.9999 51.2312C58.0668 51.4228 58.1344 51.6143 58.2295 51.887C58.3395 51.9041 58.5341 51.9339 58.9043 51.9914C58.4004 52.3925 57.9894 52.72 57.5899 53.0375C57.4383 52.9664 57.3246 52.9126 57.2061 52.857C57.1564 53.6784 56.5549 53.8473 55.9321 54.0105C55.7337 54.0627 55.537 54.1607 55.3686 54.2787C54.9907 54.5429 54.631 54.8329 54.1892 55.1704C54.1739 55.1643 54.0575 55.119 53.8165 55.026C53.6769 55.2349 53.5095 55.4855 53.2438 55.8842C53.3417 55.8626 53.2086 55.8577 53.118 55.9168C52.3843 56.3946 51.7084 56.9589 50.934 57.3767C50.8611 57.4162 50.8216 57.5121 50.7541 57.5657C50.3133 57.914 49.6086 57.6803 49.262 58.2205C48.9559 58.6976 48.3867 58.7044 47.9734 58.9901C47.5291 59.2976 47.0561 59.5635 46.591 59.8394C46.4478 59.9248 46.2688 59.9583 46.1445 60.062C46.0093 60.1742 45.9189 60.3403 45.7591 60.548C45.5504 60.5461 45.2828 60.5445 45.0848 60.5426L44.5256 61.2687C43.7451 61.3511 42.9542 61.4216 42.4582 62.1713C42.4142 62.2381 42.3326 62.3197 42.264 62.3244C41.1018 62.4023 40.361 63.3642 39.3079 63.7137C38.2924 64.0508 37.3932 64.7239 36.4007 65.1506C35.086 65.7163 33.7311 66.1872 32.3904 66.6917C32.2676 66.7383 32.1186 66.7637 31.9909 66.7428C30.7962 66.5494 29.6034 66.343 28.5225 66.1602C28.0748 65.6529 27.7069 65.2358 27.2339 64.6996C27.2607 64.4464 27.3052 64.0305 27.3481 63.6265C28.0107 63.2239 28.6334 62.8019 29.2964 62.4565C29.9627 62.1092 30.6518 61.7859 31.362 61.5449C32.9163 61.0163 34.3125 60.1532 35.8127 59.5179C36.7006 59.1419 37.4777 58.4998 38.4777 58.3914C39.7791 57.3891 41.2988 56.7862 42.7274 56.015C43.3449 55.6815 44.0196 55.4371 44.5913 54.9983C45.1177 54.5933 45.7074 54.2716 46.2678 53.9109C48.0204 52.7846 49.7773 51.6667 51.5211 50.5274C52.4292 49.9344 53.3254 49.3203 54.2051 48.6853C55.0909 48.0457 55.9247 47.3016 56.8198 46.7149C58.3884 45.6863 59.6074 44.273 61.1231 43.1962C61.9235 42.6278 62.532 41.7759 63.1786 41.0109C63.8091 40.266 64.3785 39.469 65.1465 38.4717Z" fill="white"/>
</svg>
