<svg width="189" height="54" viewBox="0 0 189 54" fill="none" xmlns="http://www.w3.org/2000/svg">
<path d="M30.8123 15.2626L19.7969 33.3917L31.6597 53.0703H24.1877L15.7143 38.2726L7.47199 53.0703H0L11.7087 33.6241L0.770308 15.2626H8.2423L15.8684 28.8207L23.5714 15.2626H30.8123Z" fill="white"/>
<path d="M43.047 14.3329C45.2039 14.3329 47.7972 14.6428 50.8271 15.2626L50.6731 20.8407C48.0027 20.2209 45.5633 19.911 43.3551 19.911C38.7333 19.911 36.4224 21.4089 36.4224 24.4046V25.1019C36.4224 26.0316 36.6534 26.7805 37.1156 27.3486C37.6292 27.9168 38.5279 28.5108 39.8117 29.1306L47.0526 32.5395C51.4177 34.6054 53.6002 37.627 53.6002 41.604V43.3085C53.5489 46.8723 52.4704 49.5581 50.3649 51.3658C48.3108 53.1219 45.0498 54 40.582 54C38.2711 54 34.9588 53.4577 30.645 52.373L30.9532 46.4849C34.8047 47.6212 37.963 48.1894 40.428 48.1894C42.9443 48.1894 44.6903 47.8537 45.6661 47.1822C46.6418 46.4591 47.1296 45.297 47.1296 43.6958V42.9211C47.1296 41.6815 46.8729 40.7001 46.3593 39.977C45.8971 39.2539 45.1012 38.6341 43.9714 38.1176L36.4994 34.7862C34.2398 33.7532 32.5708 32.5136 31.4924 31.0674C30.4653 29.6212 29.9518 27.9426 29.9518 26.0316V24.9469C30.0545 21.4347 31.1329 18.8006 33.1871 17.0445C35.2926 15.2367 38.5792 14.3329 43.047 14.3329Z" fill="white"/>
<path d="M63.2074 15.2626V53.0703H56.6598V15.2626H63.2074ZM59.8951 0C61.2817 0 62.3344 0.3099 63.0534 0.9297C63.8237 1.5495 64.2088 2.42755 64.2088 3.56384V5.81062C64.2088 6.94692 63.8237 7.82497 63.0534 8.44476C62.3344 9.01291 61.2817 9.29699 59.8951 9.29699C58.5599 9.29699 57.5071 9.01291 56.7368 8.44476C56.0179 7.82497 55.6584 6.94692 55.6584 5.81062V3.56384C55.6584 2.42755 56.0179 1.5495 56.7368 0.9297C57.5071 0.3099 58.5599 0 59.8951 0Z" fill="white"/>
<path d="M79.3538 14.3329C81.5107 14.3329 84.104 14.6428 87.1339 15.2626L86.9799 20.8407C84.3095 20.2209 81.8702 19.911 79.6619 19.911C75.0401 19.911 72.7292 21.4089 72.7292 24.4046V25.1019C72.7292 26.0316 72.9603 26.7805 73.4224 27.3486C73.936 27.9168 74.8347 28.5108 76.1185 29.1306L83.3594 32.5395C87.7245 34.6054 89.907 37.627 89.907 41.604V43.3085C89.8557 46.8723 88.7773 49.5581 86.6717 51.3658C84.6176 53.1219 81.3566 54 76.8888 54C74.5779 54 71.2656 53.4577 66.9519 52.373L67.26 46.4849C71.1115 47.6212 74.2698 48.1894 76.7348 48.1894C79.2511 48.1894 80.9971 47.8537 81.9729 47.1822C82.9486 46.4591 83.4364 45.297 83.4364 43.6958V42.9211C83.4364 41.6815 83.1797 40.7001 82.6661 39.977C82.204 39.2539 81.408 38.6341 80.2782 38.1176L72.8062 34.7862C70.5466 33.7532 68.8776 32.5136 67.7992 31.0674C66.7721 29.6212 66.2586 27.9426 66.2586 26.0316V24.9469C66.3613 21.4347 67.4397 18.8006 69.4939 17.0445C71.5994 15.2367 74.886 14.3329 79.3538 14.3329Z" fill="white"/>
<path d="M102.848 14.3329C105.005 14.3329 107.598 14.6428 110.628 15.2626L110.474 20.8407C107.804 20.2209 105.365 19.911 103.156 19.911C98.5345 19.911 96.2236 21.4089 96.2236 24.4046V25.1019C96.2236 26.0316 96.4547 26.7805 96.9168 27.3486C97.4304 27.9168 98.3291 28.5108 99.6129 29.1306L106.854 32.5395C111.219 34.6054 113.401 37.627 113.401 41.604V43.3085C113.35 46.8723 112.272 49.5581 110.166 51.3658C108.112 53.1219 104.851 54 100.383 54C98.0723 54 94.76 53.4577 90.4463 52.373L90.7544 46.4849C94.6059 47.6212 97.7642 48.1894 100.229 48.1894C102.746 48.1894 104.492 47.8537 105.467 47.1822C106.443 46.4591 106.931 45.297 106.931 43.6958V42.9211C106.931 41.6815 106.674 40.7001 106.161 39.977C105.698 39.2539 104.902 38.6341 103.773 38.1176L96.3006 34.7862C94.041 33.7532 92.372 32.5136 91.2936 31.0674C90.2665 29.6212 89.753 27.9426 89.753 26.0316V24.9469C89.8557 21.4347 90.9341 18.8006 92.9883 17.0445C95.0938 15.2367 98.3804 14.3329 102.848 14.3329Z" fill="white"/>
<path d="M128.872 14.3329C133.443 14.3329 136.832 15.5725 139.04 18.0517C141.3 20.4792 142.429 23.9397 142.429 28.4333V39.8996C142.429 44.3931 141.3 47.8795 139.04 50.3587C136.832 52.7862 133.443 54 128.872 54C124.302 54 120.886 52.7862 118.627 50.3587C116.419 47.8795 115.315 44.3931 115.315 39.8996V28.4333C115.315 23.9397 116.419 20.4792 118.627 18.0517C120.886 15.5725 124.302 14.3329 128.872 14.3329ZM128.872 19.8336C126.664 19.8336 124.943 20.5308 123.711 21.9254C122.478 23.3199 121.862 25.3085 121.862 27.891V40.4419C121.862 43.0244 122.478 45.0129 123.711 46.4075C124.943 47.802 126.664 48.4993 128.872 48.4993C131.08 48.4993 132.801 47.802 134.033 46.4075C135.266 45.0129 135.882 43.0244 135.882 40.4419V27.8135C135.882 25.231 135.266 23.2683 134.033 21.9254C132.801 20.5308 131.08 19.8336 128.872 19.8336Z" fill="white"/>
<path d="M163.434 14.3329C164.153 14.3329 164.718 14.3845 165.129 14.4878V21.9254C164.359 21.7704 163.357 21.693 162.125 21.693C158.53 21.693 155.68 23.5007 153.574 27.1162V53.0703H147.027V15.2626H153.189V20.9182C154.576 18.8006 156.116 17.1736 157.811 16.0373C159.557 14.901 161.431 14.3329 163.434 14.3329Z" fill="white"/>
<path d="M178.447 14.3329C180.604 14.3329 183.197 14.6428 186.227 15.2626L186.073 20.8407C183.402 20.2209 180.963 19.911 178.755 19.911C174.133 19.911 171.822 21.4089 171.822 24.4046V25.1019C171.822 26.0316 172.053 26.7805 172.515 27.3486C173.029 27.9168 173.928 28.5108 175.211 29.1306L182.452 32.5395C186.817 34.6054 189 37.627 189 41.604V43.3085C188.949 46.8723 187.87 49.5581 185.765 51.3658C183.711 53.1219 180.45 54 175.982 54C173.671 54 170.359 53.4577 166.045 52.373L166.353 46.4849C170.204 47.6212 173.363 48.1894 175.828 48.1894C178.344 48.1894 180.09 47.8537 181.066 47.1822C182.042 46.4591 182.529 45.297 182.529 43.6958V42.9211C182.529 41.6815 182.273 40.7001 181.759 39.977C181.297 39.2539 180.501 38.6341 179.371 38.1176L171.899 34.7862C169.64 33.7532 167.971 32.5136 166.892 31.0674C165.865 29.6212 165.352 27.9426 165.352 26.0316V24.9469C165.454 21.4347 166.533 18.8006 168.587 17.0445C170.692 15.2367 173.979 14.3329 178.447 14.3329Z" fill="white"/>
</svg>
