<svg width="388" height="398" viewBox="0 0 388 398" fill="none" xmlns="http://www.w3.org/2000/svg">
<g filter="url(#filter0_d_1_213)">
<path d="M105.804 22.6792C108.289 15.1244 116.427 11.0142 123.982 13.4989L353.108 88.8552C360.663 91.3399 364.773 99.4785 362.289 107.033L281.983 351.207C279.499 358.761 271.36 362.872 263.805 360.387L34.679 285.031C27.1242 282.546 23.0141 274.407 25.4988 266.853L105.804 22.6792Z" fill="white"/>
<path d="M101.532 166.251L102.635 166.614L103.621 171.055L103.714 171.086L107.143 168.097L108.247 168.46L103.832 172.193L102.754 175.473L101.79 175.156L102.868 171.876L101.532 166.251ZM108.291 177.432C107.752 177.255 107.322 176.971 106.999 176.581C106.679 176.191 106.481 175.728 106.405 175.192C106.331 174.657 106.396 174.081 106.599 173.465C106.803 172.843 107.094 172.337 107.472 171.947C107.853 171.559 108.287 171.302 108.776 171.179C109.267 171.056 109.782 171.083 110.321 171.261C110.86 171.438 111.289 171.721 111.609 172.111C111.931 172.501 112.129 172.965 112.202 173.503C112.277 174.042 112.213 174.622 112.008 175.244C111.805 175.86 111.514 176.362 111.134 176.748C110.757 177.135 110.323 177.39 109.832 177.512C109.344 177.636 108.83 177.609 108.291 177.432ZM108.562 176.608C108.971 176.743 109.343 176.748 109.676 176.626C110.009 176.503 110.296 176.291 110.535 175.991C110.774 175.691 110.96 175.341 111.091 174.942C111.222 174.543 111.281 174.15 111.267 173.764C111.254 173.378 111.15 173.035 110.955 172.736C110.761 172.436 110.459 172.219 110.05 172.085C109.64 171.95 109.269 171.945 108.935 172.071C108.6 172.196 108.313 172.411 108.073 172.713C107.833 173.016 107.647 173.367 107.516 173.766C107.385 174.165 107.326 174.556 107.341 174.94C107.355 175.324 107.46 175.664 107.655 175.961C107.85 176.258 108.153 176.473 108.562 176.608ZM117.001 177.454L118.162 173.926L119.079 174.227L117.116 180.196L116.199 179.895L116.531 178.884L116.469 178.864C116.229 179.121 115.927 179.307 115.561 179.422C115.197 179.535 114.79 179.517 114.339 179.369C113.966 179.246 113.661 179.056 113.424 178.797C113.189 178.536 113.043 178.212 112.986 177.826C112.93 177.437 112.986 176.989 113.153 176.481L114.4 172.688L115.317 172.99L114.09 176.721C113.947 177.156 113.955 177.543 114.113 177.882C114.274 178.222 114.545 178.455 114.925 178.58C115.153 178.655 115.405 178.673 115.679 178.634C115.955 178.596 116.214 178.483 116.453 178.295C116.696 178.107 116.879 177.827 117.001 177.454ZM118.795 180.749L120.759 174.78L121.645 175.071L121.348 175.973L121.41 175.993C121.616 175.734 121.892 175.559 122.237 175.468C122.583 175.378 122.934 175.392 123.292 175.51C123.359 175.532 123.443 175.561 123.543 175.596C123.643 175.632 123.719 175.661 123.769 175.684L123.462 176.616C123.433 176.598 123.366 176.563 123.26 176.511C123.157 176.457 123.045 176.41 122.923 176.37C122.633 176.275 122.354 176.25 122.086 176.297C121.821 176.342 121.588 176.449 121.386 176.618C121.187 176.785 121.044 177.004 120.955 177.273L119.713 181.05L118.795 180.749ZM128.329 184.022C127.769 183.838 127.331 183.547 127.014 183.15C126.696 182.753 126.505 182.287 126.44 181.751C126.375 181.216 126.441 180.651 126.637 180.055C126.836 179.448 127.123 178.95 127.499 178.56C127.877 178.167 128.311 177.907 128.798 177.777C129.289 177.646 129.804 177.669 130.343 177.846C130.763 177.984 131.115 178.186 131.401 178.452C131.687 178.718 131.891 179.027 132.014 179.377C132.137 179.728 132.163 180.098 132.092 180.488L131.175 180.187C131.195 179.892 131.119 179.599 130.947 179.31C130.778 179.02 130.492 178.808 130.088 178.675C129.73 178.557 129.386 178.547 129.055 178.645C128.728 178.741 128.434 178.933 128.173 179.221C127.915 179.506 127.712 179.874 127.564 180.325C127.412 180.786 127.353 181.212 127.385 181.601C127.42 181.992 127.54 182.326 127.745 182.603C127.952 182.88 128.237 183.079 128.6 183.198C128.838 183.277 129.068 183.306 129.29 183.287C129.511 183.268 129.715 183.203 129.901 183.092C130.087 182.981 130.244 182.826 130.373 182.627L131.29 182.929C131.122 183.264 130.889 183.539 130.592 183.754C130.298 183.968 129.956 184.102 129.568 184.158C129.182 184.212 128.769 184.167 128.329 184.022ZM134.442 186.032C133.903 185.855 133.472 185.572 133.15 185.181C132.83 184.792 132.632 184.329 132.556 183.793C132.482 183.258 132.547 182.682 132.749 182.065C132.954 181.443 133.245 180.938 133.623 180.548C134.004 180.159 134.438 179.903 134.927 179.78C135.418 179.657 135.933 179.684 136.472 179.861C137.01 180.039 137.44 180.322 137.76 180.711C138.082 181.102 138.28 181.566 138.352 182.103C138.428 182.642 138.363 183.222 138.159 183.844C137.956 184.461 137.665 184.962 137.285 185.348C136.908 185.735 136.474 185.99 135.983 186.113C135.494 186.237 134.981 186.21 134.442 186.032ZM134.713 185.209C135.122 185.343 135.494 185.349 135.827 185.226C136.16 185.103 136.446 184.892 136.686 184.591C136.925 184.291 137.111 183.942 137.242 183.543C137.373 183.144 137.432 182.751 137.418 182.365C137.405 181.978 137.301 181.635 137.106 181.336C136.912 181.037 136.61 180.82 136.201 180.685C135.791 180.551 135.419 180.546 135.085 180.672C134.751 180.797 134.464 181.011 134.224 181.314C133.983 181.617 133.798 181.968 133.667 182.367C133.535 182.766 133.477 183.157 133.491 183.541C133.506 183.925 133.611 184.265 133.806 184.562C134.001 184.858 134.304 185.074 134.713 185.209ZM138.588 187.258L140.551 181.289L141.437 181.58L141.13 182.513L141.208 182.539C141.437 182.261 141.719 182.08 142.054 181.995C142.39 181.907 142.752 181.927 143.141 182.055C143.535 182.184 143.833 182.382 144.036 182.646C144.242 182.909 144.367 183.225 144.41 183.592L144.472 183.612C144.726 183.354 145.036 183.185 145.401 183.104C145.768 183.021 146.165 183.049 146.592 183.19C147.126 183.365 147.507 183.676 147.737 184.122C147.967 184.565 147.967 185.138 147.736 185.84L146.422 189.835L145.505 189.533L146.819 185.538C146.964 185.098 146.947 184.743 146.768 184.475C146.589 184.207 146.337 184.019 146.01 183.911C145.59 183.773 145.224 183.793 144.909 183.971C144.596 184.147 144.376 184.428 144.249 184.814L142.971 188.7L142.038 188.393L143.383 184.305C143.495 183.965 143.474 183.656 143.322 183.376C143.171 183.094 142.922 182.896 142.575 182.782C142.336 182.703 142.093 182.693 141.844 182.752C141.597 182.812 141.374 182.933 141.173 183.117C140.975 183.299 140.828 183.536 140.732 183.829L139.505 187.56L138.588 187.258ZM148.099 190.386L150.062 184.417L150.948 184.709L150.641 185.641L150.719 185.667C150.948 185.389 151.23 185.208 151.565 185.123C151.901 185.035 152.264 185.055 152.652 185.183C153.046 185.312 153.345 185.51 153.547 185.774C153.754 186.038 153.878 186.353 153.921 186.72L153.983 186.74C154.238 186.482 154.547 186.313 154.913 186.232C155.279 186.149 155.676 186.177 156.103 186.318C156.637 186.493 157.019 186.804 157.248 187.25C157.478 187.693 157.478 188.266 157.247 188.968L155.933 192.963L155.016 192.661L156.33 188.666C156.475 188.226 156.458 187.871 156.279 187.603C156.1 187.335 155.848 187.147 155.521 187.04C155.102 186.901 154.735 186.921 154.421 187.1C154.108 187.275 153.887 187.556 153.76 187.942L152.482 191.828L151.55 191.521L152.894 187.433C153.006 187.094 152.986 186.784 152.834 186.504C152.682 186.222 152.433 186.024 152.086 185.91C151.848 185.831 151.604 185.821 151.355 185.88C151.109 185.94 150.885 186.062 150.684 186.245C150.486 186.427 150.339 186.664 150.243 186.957L149.016 190.688L148.099 190.386ZM157.61 193.514L159.573 187.545L160.49 187.847L158.527 193.816L157.61 193.514ZM160.367 186.704C160.188 186.645 160.054 186.533 159.964 186.369C159.878 186.206 159.862 186.038 159.918 185.867C159.975 185.696 160.086 185.571 160.253 185.491C160.423 185.412 160.597 185.401 160.776 185.46C160.955 185.519 161.087 185.63 161.174 185.794C161.264 185.958 161.28 186.126 161.224 186.297C161.168 186.468 161.055 186.593 160.885 186.672C160.718 186.752 160.546 186.763 160.367 186.704ZM165.959 191.127L165.058 191.089C165.051 190.935 165.019 190.776 164.96 190.613C164.905 190.449 164.807 190.296 164.664 190.154C164.521 190.012 164.316 189.897 164.049 189.81C163.684 189.69 163.352 189.674 163.053 189.762C162.757 189.849 162.567 190.02 162.483 190.277C162.408 190.504 162.432 190.712 162.554 190.898C162.676 191.085 162.899 191.28 163.223 191.484L164.037 191.993C164.528 192.299 164.861 192.627 165.035 192.98C165.209 193.331 165.228 193.714 165.091 194.132C164.979 194.474 164.78 194.747 164.494 194.952C164.211 195.157 163.869 195.28 163.468 195.32C163.067 195.361 162.635 195.305 162.171 195.152C161.563 194.952 161.102 194.654 160.79 194.259C160.478 193.863 160.352 193.394 160.413 192.851L161.355 192.92C161.332 193.269 161.41 193.561 161.588 193.798C161.768 194.035 162.046 194.215 162.422 194.339C162.849 194.479 163.218 194.5 163.529 194.402C163.844 194.301 164.043 194.123 164.127 193.866C164.196 193.659 164.18 193.462 164.081 193.274C163.983 193.084 163.795 192.904 163.517 192.736L162.599 192.175C162.095 191.866 161.76 191.533 161.593 191.177C161.429 190.818 161.415 190.433 161.551 190.022C161.661 189.685 161.854 189.418 162.128 189.221C162.405 189.025 162.732 188.907 163.11 188.868C163.49 188.829 163.89 188.879 164.31 189.017C164.901 189.211 165.322 189.493 165.573 189.863C165.827 190.234 165.956 190.655 165.959 191.127ZM171.676 193.007L170.776 192.969C170.769 192.815 170.736 192.656 170.678 192.494C170.623 192.329 170.524 192.176 170.381 192.034C170.238 191.893 170.033 191.778 169.767 191.69C169.401 191.57 169.069 191.554 168.77 191.642C168.475 191.729 168.285 191.9 168.201 192.157C168.126 192.385 168.149 192.592 168.272 192.779C168.394 192.966 168.617 193.161 168.94 193.365L169.755 193.874C170.246 194.179 170.578 194.508 170.752 194.861C170.927 195.211 170.946 195.595 170.808 196.012C170.696 196.354 170.497 196.627 170.211 196.832C169.929 197.037 169.587 197.16 169.186 197.201C168.785 197.241 168.353 197.185 167.889 197.033C167.28 196.832 166.82 196.535 166.508 196.139C166.195 195.744 166.07 195.275 166.131 194.732L167.073 194.801C167.05 195.149 167.127 195.442 167.305 195.678C167.486 195.915 167.764 196.096 168.139 196.219C168.567 196.36 168.936 196.381 169.247 196.282C169.561 196.182 169.761 196.003 169.845 195.747C169.913 195.539 169.898 195.342 169.799 195.154C169.7 194.964 169.512 194.785 169.235 194.616L168.317 194.056C167.813 193.746 167.477 193.413 167.31 193.057C167.147 192.699 167.133 192.314 167.268 191.902C167.379 191.565 167.571 191.298 167.846 191.101C168.123 190.905 168.45 190.788 168.827 190.748C169.208 190.71 169.608 190.759 170.027 190.897C170.618 191.092 171.039 191.374 171.291 191.743C171.545 192.114 171.673 192.535 171.676 193.007ZM171.642 198.129L173.605 192.16L174.522 192.462L172.559 198.431L171.642 198.129ZM174.399 191.319C174.22 191.26 174.086 191.148 173.996 190.984C173.909 190.82 173.894 190.653 173.95 190.482C174.007 190.311 174.118 190.186 174.285 190.106C174.455 190.026 174.629 190.016 174.808 190.075C174.986 190.134 175.119 190.245 175.206 190.409C175.296 190.573 175.312 190.741 175.256 190.912C175.2 191.083 175.087 191.208 174.917 191.287C174.75 191.367 174.577 191.377 174.399 191.319ZM176.623 199.905C176.084 199.728 175.653 199.444 175.331 199.054C175.011 198.665 174.813 198.202 174.737 197.666C174.663 197.13 174.728 196.554 174.93 195.938C175.135 195.316 175.426 194.81 175.804 194.421C176.185 194.032 176.619 193.776 177.108 193.652C177.599 193.53 178.114 193.557 178.653 193.734C179.191 193.911 179.621 194.195 179.941 194.584C180.263 194.974 180.461 195.438 180.533 195.976C180.609 196.515 180.544 197.095 180.34 197.717C180.137 198.334 179.846 198.835 179.466 199.221C179.089 199.608 178.655 199.863 178.164 199.986C177.676 200.109 177.162 200.082 176.623 199.905ZM176.894 199.081C177.303 199.216 177.675 199.222 178.008 199.099C178.341 198.976 178.627 198.764 178.867 198.464C179.106 198.164 179.292 197.814 179.423 197.415C179.554 197.016 179.613 196.624 179.599 196.237C179.586 195.851 179.482 195.508 179.287 195.209C179.093 194.91 178.791 194.693 178.382 194.558C177.972 194.423 177.601 194.419 177.266 194.544C176.932 194.67 176.645 194.884 176.405 195.187C176.165 195.49 175.979 195.84 175.848 196.239C175.716 196.638 175.658 197.03 175.672 197.414C175.687 197.797 175.792 198.138 175.987 198.434C176.182 198.731 176.485 198.947 176.894 199.081ZM182.867 197.842L181.686 201.432L180.769 201.131L182.732 195.162L183.618 195.453L183.311 196.386L183.389 196.411C183.628 196.154 183.921 195.981 184.266 195.89C184.613 195.798 185.011 195.825 185.462 195.974C185.866 196.106 186.193 196.306 186.441 196.571C186.691 196.834 186.845 197.16 186.903 197.55C186.962 197.937 186.909 198.384 186.742 198.892L185.494 202.685L184.577 202.383L185.804 198.653C185.958 198.184 185.957 197.778 185.799 197.437C185.642 197.092 185.352 196.85 184.927 196.711C184.634 196.614 184.352 196.592 184.079 196.643C183.809 196.695 183.568 196.821 183.356 197.021C183.144 197.221 182.981 197.495 182.867 197.842ZM191.6 204.693L191.745 198.126L192.708 198.443L192.496 203.437L192.558 203.458L195.335 199.307L196.315 199.629L196.076 204.598L196.138 204.618L198.926 200.488L199.89 200.805L196.108 206.176L195.207 205.879L195.409 200.864L195.316 200.834L192.502 204.99L191.6 204.693ZM200.85 207.89C200.472 207.766 200.152 207.582 199.89 207.338C199.63 207.091 199.453 206.802 199.362 206.471C199.271 206.136 199.289 205.775 199.417 205.386C199.529 205.044 199.688 204.789 199.892 204.621C200.098 204.45 200.333 204.341 200.599 204.294C200.864 204.246 201.143 204.237 201.434 204.267C201.729 204.295 202.021 204.337 202.311 204.392C202.689 204.464 202.994 204.526 203.227 204.577C203.464 204.626 203.644 204.638 203.767 204.612C203.893 204.587 203.98 204.501 204.028 204.354L204.039 204.323C204.165 203.939 204.158 203.607 204.018 203.325C203.88 203.045 203.601 202.835 203.178 202.696C202.74 202.552 202.366 202.535 202.054 202.645C201.742 202.755 201.5 202.902 201.327 203.086L200.559 202.489C200.834 202.178 201.134 201.963 201.459 201.846C201.788 201.728 202.12 201.679 202.455 201.7C202.793 201.719 203.113 201.779 203.413 201.877C203.605 201.94 203.817 202.036 204.051 202.165C204.288 202.291 204.499 202.463 204.687 202.68C204.876 202.897 205.003 203.172 205.065 203.506C205.128 203.839 205.081 204.243 204.925 204.717L203.632 208.65L202.715 208.349L202.98 207.54L202.934 207.525C202.829 207.634 202.68 207.739 202.486 207.838C202.292 207.938 202.058 208.001 201.783 208.025C201.508 208.049 201.197 208.004 200.85 207.89ZM201.261 207.112C201.623 207.232 201.953 207.261 202.248 207.2C202.546 207.141 202.796 207.019 202.997 206.835C203.201 206.652 203.343 206.437 203.425 206.188L203.701 205.348C203.647 205.382 203.547 205.397 203.403 205.392C203.261 205.386 203.1 205.369 202.92 205.341C202.743 205.312 202.571 205.281 202.403 205.249C202.239 205.215 202.106 205.188 202.003 205.169C201.755 205.122 201.515 205.099 201.285 205.101C201.058 205.101 200.859 205.149 200.687 205.244C200.518 205.338 200.395 205.501 200.319 205.735C200.214 206.053 200.252 206.333 200.434 206.574C200.62 206.813 200.895 206.992 201.261 207.112ZM211.057 205.959L210.157 205.921C210.15 205.767 210.117 205.608 210.059 205.446C210.004 205.281 209.905 205.128 209.762 204.986C209.619 204.844 209.414 204.73 209.148 204.642C208.782 204.522 208.45 204.506 208.151 204.594C207.856 204.681 207.666 204.852 207.582 205.109C207.507 205.337 207.53 205.544 207.653 205.731C207.775 205.917 207.998 206.113 208.321 206.317L209.136 206.826C209.627 207.131 209.959 207.46 210.133 207.813C210.308 208.163 210.327 208.547 210.19 208.964C210.077 209.306 209.878 209.579 209.593 209.784C209.31 209.989 208.968 210.112 208.567 210.153C208.166 210.193 207.734 210.137 207.27 209.985C206.661 209.784 206.201 209.486 205.889 209.091C205.577 208.696 205.451 208.226 205.512 207.684L206.454 207.752C206.431 208.101 206.509 208.393 206.686 208.63C206.867 208.867 207.145 209.048 207.52 209.171C207.948 209.312 208.317 209.333 208.628 209.234C208.942 209.134 209.142 208.955 209.226 208.699C209.294 208.491 209.279 208.294 209.18 208.106C209.081 207.916 208.894 207.737 208.616 207.568L207.698 207.007C207.194 206.698 206.858 206.365 206.691 206.009C206.528 205.651 206.514 205.266 206.649 204.854C206.76 204.517 206.952 204.25 207.227 204.053C207.504 203.857 207.831 203.74 208.209 203.7C208.589 203.661 208.989 203.711 209.408 203.849C209.999 204.043 210.42 204.326 210.672 204.695C210.926 205.066 211.054 205.487 211.057 205.959ZM219.852 208.852L218.952 208.814C218.945 208.66 218.913 208.501 218.854 208.338C218.799 208.174 218.7 208.021 218.558 207.879C218.415 207.737 218.21 207.622 217.943 207.535C217.578 207.414 217.246 207.399 216.947 207.487C216.651 207.573 216.461 207.745 216.377 208.001C216.302 208.229 216.326 208.437 216.448 208.623C216.57 208.81 216.793 209.005 217.117 209.209L217.931 209.718C218.422 210.023 218.755 210.352 218.928 210.705C219.103 211.056 219.122 211.439 218.985 211.856C218.872 212.198 218.673 212.472 218.388 212.676C218.105 212.882 217.763 213.005 217.362 213.045C216.961 213.086 216.529 213.03 216.065 212.877C215.456 212.677 214.996 212.379 214.684 211.984C214.372 211.588 214.246 211.119 214.307 210.576L215.249 210.645C215.226 210.994 215.304 211.286 215.482 211.522C215.662 211.76 215.94 211.94 216.316 212.064C216.743 212.204 217.112 212.225 217.423 212.127C217.738 212.026 217.937 211.848 218.021 211.591C218.089 211.384 218.074 211.187 217.975 210.999C217.877 210.809 217.689 210.629 217.411 210.46L216.493 209.9C215.989 209.591 215.654 209.258 215.487 208.901C215.323 208.543 215.309 208.158 215.444 207.746C215.555 207.41 215.748 207.143 216.022 206.946C216.299 206.75 216.626 206.632 217.004 206.593C217.384 206.554 217.784 206.604 218.204 206.742C218.794 206.936 219.215 207.218 219.467 207.588C219.721 207.959 219.85 208.38 219.852 208.852ZM224.383 212.77L225.543 209.242L226.46 209.543L224.497 215.513L223.58 215.211L223.912 214.201L223.85 214.18C223.611 214.437 223.308 214.623 222.943 214.739C222.579 214.851 222.171 214.834 221.72 214.685C221.347 214.563 221.042 214.372 220.806 214.113C220.57 213.852 220.424 213.528 220.367 213.142C220.312 212.754 220.367 212.305 220.534 211.798L221.782 208.005L222.699 208.306L221.472 212.037C221.329 212.472 221.336 212.859 221.494 213.199C221.655 213.539 221.926 213.771 222.307 213.897C222.535 213.971 222.786 213.989 223.06 213.95C223.337 213.912 223.595 213.799 223.835 213.611C224.078 213.424 224.26 213.144 224.383 212.77ZM228.561 216.987C228.001 216.803 227.563 216.512 227.246 216.115C226.929 215.718 226.737 215.252 226.672 214.716C226.607 214.181 226.673 213.615 226.869 213.02C227.068 212.413 227.355 211.915 227.731 211.524C228.109 211.132 228.543 210.871 229.03 210.742C229.521 210.61 230.036 210.633 230.575 210.811C230.995 210.949 231.348 211.151 231.633 211.417C231.919 211.683 232.123 211.992 232.246 212.342C232.369 212.693 232.395 213.063 232.324 213.453L231.407 213.151C231.427 212.856 231.351 212.564 231.179 212.275C231.01 211.984 230.724 211.773 230.32 211.64C229.962 211.522 229.618 211.512 229.287 211.61C228.96 211.706 228.666 211.898 228.405 212.185C228.147 212.471 227.944 212.839 227.796 213.29C227.644 213.751 227.585 214.177 227.617 214.566C227.653 214.957 227.772 215.291 227.977 215.568C228.184 215.845 228.469 216.044 228.832 216.163C229.07 216.241 229.3 216.271 229.522 216.252C229.744 216.233 229.947 216.168 230.133 216.057C230.319 215.946 230.476 215.791 230.605 215.592L231.522 215.894C231.354 216.229 231.121 216.504 230.824 216.719C230.53 216.932 230.188 217.067 229.8 217.123C229.414 217.177 229.002 217.132 228.561 216.987ZM234.674 218.997C234.114 218.813 233.676 218.523 233.359 218.126C233.041 217.728 232.85 217.262 232.785 216.727C232.72 216.191 232.786 215.626 232.981 215.03C233.181 214.424 233.468 213.925 233.844 213.535C234.222 213.143 234.656 212.882 235.143 212.752C235.634 212.621 236.149 212.644 236.688 212.821C237.108 212.959 237.46 213.161 237.746 213.427C238.032 213.694 238.236 214.002 238.359 214.353C238.482 214.703 238.508 215.073 238.437 215.463L237.52 215.162C237.54 214.867 237.464 214.575 237.292 214.286C237.123 213.995 236.837 213.783 236.433 213.65C236.075 213.532 235.731 213.523 235.4 213.621C235.073 213.717 234.779 213.909 234.518 214.196C234.26 214.482 234.057 214.85 233.909 215.301C233.757 215.762 233.698 216.187 233.73 216.577C233.765 216.967 233.885 217.301 234.09 217.578C234.297 217.856 234.582 218.054 234.945 218.173C235.183 218.252 235.413 218.282 235.635 218.263C235.856 218.244 236.06 218.179 236.246 218.067C236.432 217.956 236.589 217.801 236.718 217.602L237.635 217.904C237.467 218.239 237.234 218.514 236.937 218.73C236.643 218.943 236.301 219.078 235.913 219.133C235.527 219.188 235.114 219.142 234.674 218.997ZM240.865 221.033C240.289 220.844 239.835 220.554 239.501 220.163C239.171 219.77 238.969 219.307 238.894 218.775C238.823 218.24 238.888 217.667 239.089 217.056C239.29 216.445 239.579 215.942 239.955 215.549C240.335 215.154 240.768 214.892 241.256 214.763C241.747 214.631 242.262 214.654 242.801 214.832C243.112 214.934 243.402 215.087 243.671 215.29C243.94 215.493 244.16 215.752 244.332 216.067C244.505 216.38 244.603 216.751 244.625 217.18C244.648 217.609 244.567 218.103 244.384 218.66L244.256 219.048L239.655 217.535L239.916 216.742L243.584 217.949C243.695 217.612 243.727 217.289 243.679 216.981C243.634 216.673 243.513 216.402 243.317 216.168C243.124 215.935 242.862 215.764 242.53 215.655C242.165 215.535 241.819 215.522 241.492 215.616C241.169 215.707 240.889 215.874 240.652 216.114C240.415 216.355 240.242 216.64 240.134 216.969L239.96 217.498C239.812 217.948 239.764 218.356 239.816 218.721C239.872 219.083 240.013 219.393 240.239 219.648C240.466 219.9 240.765 220.088 241.136 220.209C241.376 220.289 241.605 220.327 241.822 220.323C242.042 220.318 242.245 220.27 242.433 220.18C242.621 220.087 242.789 219.949 242.935 219.768L243.739 220.308C243.547 220.578 243.303 220.79 243.008 220.946C242.714 221.099 242.384 221.186 242.018 221.206C241.653 221.224 241.269 221.166 240.865 221.033ZM250.524 218.939L249.623 218.901C249.617 218.747 249.584 218.588 249.526 218.426C249.471 218.261 249.372 218.108 249.229 217.966C249.086 217.824 248.881 217.71 248.614 217.622C248.249 217.502 247.917 217.486 247.618 217.574C247.322 217.661 247.133 217.832 247.048 218.089C246.973 218.317 246.997 218.524 247.119 218.711C247.242 218.897 247.464 219.093 247.788 219.297L248.602 219.806C249.093 220.111 249.426 220.44 249.6 220.793C249.775 221.143 249.793 221.527 249.656 221.944C249.544 222.286 249.345 222.559 249.059 222.764C248.776 222.969 248.434 223.092 248.033 223.133C247.633 223.173 247.2 223.117 246.737 222.965C246.128 222.764 245.667 222.466 245.355 222.071C245.043 221.676 244.917 221.206 244.978 220.664L245.92 220.732C245.898 221.081 245.975 221.373 246.153 221.61C246.333 221.847 246.611 222.028 246.987 222.151C247.414 222.292 247.784 222.313 248.094 222.214C248.409 222.114 248.608 221.935 248.693 221.679C248.761 221.471 248.745 221.274 248.646 221.086C248.548 220.896 248.36 220.717 248.083 220.548L247.164 219.987C246.66 219.678 246.325 219.345 246.158 218.989C245.994 218.631 245.98 218.246 246.116 217.834C246.226 217.497 246.419 217.23 246.693 217.033C246.97 216.837 247.298 216.719 247.675 216.68C248.055 216.641 248.455 216.691 248.875 216.829C249.466 217.023 249.887 217.305 250.138 217.675C250.393 218.046 250.521 218.467 250.524 218.939ZM256.241 220.819L255.341 220.782C255.334 220.627 255.302 220.469 255.243 220.306C255.188 220.141 255.089 219.988 254.946 219.847C254.803 219.705 254.599 219.59 254.332 219.502C253.966 219.382 253.634 219.366 253.335 219.455C253.04 219.541 252.85 219.713 252.766 219.969C252.691 220.197 252.714 220.404 252.837 220.591C252.959 220.778 253.182 220.973 253.505 221.177L254.32 221.686C254.811 221.991 255.143 222.32 255.317 222.673C255.492 223.023 255.511 223.407 255.374 223.824C255.261 224.166 255.062 224.439 254.777 224.644C254.494 224.85 254.152 224.973 253.751 225.013C253.35 225.054 252.918 224.997 252.454 224.845C251.845 224.645 251.385 224.347 251.073 223.951C250.761 223.556 250.635 223.087 250.696 222.544L251.638 222.613C251.615 222.961 251.693 223.254 251.87 223.49C252.051 223.728 252.329 223.908 252.704 224.032C253.132 224.172 253.501 224.193 253.812 224.094C254.126 223.994 254.326 223.815 254.41 223.559C254.478 223.352 254.463 223.154 254.364 222.967C254.265 222.776 254.078 222.597 253.8 222.428L252.882 221.868C252.378 221.558 252.042 221.226 251.875 220.869C251.712 220.511 251.698 220.126 251.833 219.714C251.944 219.377 252.136 219.111 252.411 218.914C252.688 218.718 253.015 218.6 253.393 218.56C253.773 218.522 254.173 218.572 254.592 218.71C255.183 218.904 255.604 219.186 255.856 219.556C256.11 219.926 256.239 220.348 256.241 220.819ZM260.828 220.847L260.573 221.624L257.355 220.566L257.611 219.788L260.828 220.847ZM256.611 226.074L258.845 219.281C258.958 218.939 259.132 218.681 259.368 218.506C259.603 218.331 259.868 218.228 260.162 218.199C260.456 218.169 260.745 218.201 261.03 218.295C261.256 218.369 261.434 218.447 261.564 218.531C261.695 218.614 261.79 218.682 261.85 218.736L261.325 219.442C261.283 219.411 261.225 219.371 261.15 219.32C261.077 219.27 260.975 219.224 260.842 219.18C260.539 219.081 260.295 219.085 260.11 219.194C259.928 219.303 259.788 219.505 259.691 219.801L257.528 226.376L256.611 226.074ZM264.715 226.035L265.876 222.507L266.793 222.808L264.829 228.777L263.912 228.476L264.245 227.465L264.182 227.445C263.943 227.702 263.64 227.888 263.275 228.003C262.911 228.116 262.503 228.098 262.053 227.95C261.679 227.827 261.375 227.637 261.138 227.378C260.903 227.117 260.756 226.793 260.7 226.407C260.644 226.018 260.699 225.57 260.866 225.062L262.114 221.269L263.031 221.571L261.804 225.302C261.661 225.737 261.668 226.124 261.827 226.463C261.988 226.803 262.258 227.036 262.639 227.161C262.867 227.236 263.118 227.254 263.392 227.215C263.669 227.177 263.927 227.064 264.167 226.876C264.41 226.688 264.592 226.408 264.715 226.035ZM270.044 221.673L267.426 229.631L266.509 229.33L269.127 221.371L270.044 221.673ZM272.641 222.527L270.023 230.485L269.106 230.184L271.724 222.225L272.641 222.527ZM271.558 233.471C271.402 233.419 271.268 233.361 271.155 233.295C271.04 233.232 270.964 233.181 270.925 233.142L271.424 232.41C271.628 232.541 271.818 232.626 271.994 232.667C272.17 232.707 272.347 232.681 272.524 232.587C272.703 232.497 272.898 232.318 273.109 232.052L273.434 231.642L273.2 224.915L274.195 225.243L274.278 230.541L274.34 230.562L277.552 226.347L278.547 226.674L273.764 232.68C273.549 232.951 273.324 233.16 273.089 233.307C272.853 233.456 272.607 233.543 272.352 233.568C272.1 233.594 271.835 233.562 271.558 233.471ZM107.378 186.169L107.122 186.946L104.029 185.929L104.284 185.152L107.378 186.169ZM105.656 184.018L106.573 184.32L104.702 190.009C104.617 190.268 104.591 190.475 104.623 190.629C104.659 190.782 104.729 190.9 104.834 190.983C104.942 191.064 105.064 191.127 105.198 191.172C105.299 191.205 105.384 191.227 105.452 191.238C105.521 191.246 105.576 191.253 105.618 191.258L105.533 192.143C105.464 192.146 105.369 192.141 105.25 192.127C105.13 192.117 104.985 192.083 104.814 192.027C104.555 191.942 104.319 191.803 104.107 191.609C103.897 191.417 103.749 191.18 103.66 190.898C103.575 190.617 103.589 190.303 103.703 189.956L105.656 184.018ZM106.794 192.592L108.757 186.623L109.643 186.914L109.347 187.816L109.409 187.836C109.615 187.577 109.89 187.402 110.236 187.312C110.581 187.222 110.933 187.235 111.29 187.353C111.358 187.375 111.442 187.404 111.542 187.44C111.642 187.476 111.717 187.505 111.767 187.527L111.46 188.46C111.432 188.442 111.365 188.406 111.258 188.354C111.155 188.3 111.043 188.253 110.921 188.213C110.631 188.118 110.352 188.094 110.084 188.14C109.819 188.185 109.586 188.292 109.384 188.461C109.186 188.629 109.042 188.847 108.953 189.116L107.711 192.894L106.794 192.592ZM112.576 194.649C112.198 194.524 111.878 194.34 111.617 194.096C111.356 193.85 111.18 193.561 111.088 193.229C110.997 192.895 111.015 192.533 111.143 192.145C111.256 191.803 111.414 191.548 111.619 191.38C111.824 191.209 112.06 191.1 112.325 191.052C112.59 191.004 112.869 190.996 113.161 191.025C113.456 191.054 113.748 191.095 114.037 191.15C114.415 191.223 114.721 191.284 114.954 191.335C115.19 191.384 115.37 191.396 115.493 191.371C115.619 191.346 115.706 191.26 115.755 191.112L115.765 191.081C115.891 190.698 115.884 190.365 115.744 190.084C115.607 189.803 115.327 189.593 114.905 189.454C114.467 189.31 114.092 189.293 113.78 189.403C113.468 189.513 113.226 189.66 113.054 189.845L112.285 189.248C112.56 188.936 112.86 188.722 113.186 188.605C113.515 188.486 113.847 188.438 114.181 188.459C114.52 188.478 114.839 188.537 115.139 188.636C115.331 188.699 115.544 188.795 115.777 188.923C116.014 189.05 116.226 189.221 116.413 189.438C116.603 189.655 116.729 189.931 116.791 190.264C116.854 190.598 116.807 191.002 116.651 191.476L115.358 195.409L114.441 195.107L114.707 194.299L114.66 194.283C114.555 194.392 114.406 194.497 114.212 194.597C114.019 194.697 113.784 194.759 113.509 194.783C113.234 194.808 112.923 194.763 112.576 194.649ZM112.987 193.871C113.35 193.99 113.679 194.02 113.974 193.959C114.273 193.899 114.522 193.777 114.723 193.594C114.927 193.411 115.07 193.195 115.152 192.946L115.428 192.107C115.373 192.141 115.274 192.155 115.129 192.151C114.987 192.145 114.827 192.127 114.646 192.1C114.469 192.07 114.297 192.039 114.13 192.007C113.966 191.974 113.832 191.947 113.73 191.927C113.481 191.88 113.242 191.857 113.011 191.859C112.784 191.859 112.585 191.907 112.413 192.003C112.244 192.096 112.122 192.26 112.045 192.493C111.94 192.812 111.979 193.091 112.161 193.332C112.346 193.571 112.622 193.751 112.987 193.871ZM119.13 192.67L117.949 196.261L117.032 195.959L118.995 189.99L119.881 190.282L119.574 191.214L119.652 191.24C119.892 190.983 120.184 190.809 120.53 190.719C120.876 190.626 121.275 190.654 121.725 190.802C122.13 190.935 122.456 191.134 122.705 191.4C122.954 191.662 123.108 191.989 123.166 192.378C123.226 192.765 123.172 193.213 123.005 193.721L121.758 197.513L120.84 197.212L122.067 193.481C122.222 193.012 122.22 192.607 122.062 192.265C121.906 191.921 121.615 191.679 121.19 191.539C120.897 191.443 120.615 191.42 120.343 191.471C120.073 191.523 119.832 191.649 119.62 191.849C119.407 192.049 119.244 192.323 119.13 192.67ZM129.185 194.823L128.284 194.785C128.278 194.631 128.245 194.472 128.187 194.309C128.132 194.145 128.033 193.992 127.89 193.85C127.747 193.708 127.542 193.594 127.275 193.506C126.91 193.386 126.578 193.37 126.279 193.458C125.984 193.545 125.794 193.716 125.709 193.973C125.634 194.201 125.658 194.408 125.78 194.595C125.903 194.781 126.126 194.977 126.449 195.181L127.264 195.69C127.755 195.995 128.087 196.324 128.261 196.677C128.436 197.027 128.455 197.411 128.317 197.828C128.205 198.17 128.006 198.443 127.72 198.648C127.437 198.853 127.096 198.976 126.695 199.017C126.294 199.057 125.862 199.001 125.398 198.848C124.789 198.648 124.328 198.35 124.016 197.955C123.704 197.559 123.579 197.09 123.639 196.548L124.582 196.616C124.559 196.965 124.636 197.257 124.814 197.494C124.994 197.731 125.272 197.911 125.648 198.035C126.076 198.176 126.445 198.197 126.756 198.098C127.07 197.997 127.269 197.819 127.354 197.562C127.422 197.355 127.407 197.158 127.307 196.97C127.209 196.78 127.021 196.6 126.744 196.432L125.826 195.871C125.322 195.562 124.986 195.229 124.819 194.873C124.655 194.515 124.641 194.13 124.777 193.718C124.888 193.381 125.08 193.114 125.355 192.917C125.631 192.721 125.959 192.603 126.336 192.564C126.717 192.525 127.116 192.575 127.536 192.713C128.127 192.907 128.548 193.189 128.8 193.559C129.054 193.93 129.182 194.351 129.185 194.823ZM133.772 194.85L133.517 195.627L130.299 194.569L130.554 193.792L133.772 194.85ZM129.555 200.078L131.789 193.285C131.902 192.943 132.076 192.684 132.311 192.509C132.547 192.334 132.812 192.232 133.106 192.202C133.4 192.172 133.689 192.204 133.974 192.298C134.199 192.372 134.377 192.451 134.508 192.534C134.639 192.617 134.734 192.686 134.793 192.74L134.268 193.446C134.227 193.415 134.169 193.374 134.093 193.324C134.021 193.274 133.918 193.227 133.786 193.184C133.483 193.084 133.239 193.088 133.054 193.197C132.872 193.306 132.732 193.509 132.635 193.804L130.472 200.379L129.555 200.078ZM135.31 202.109C134.735 201.919 134.281 201.629 133.947 201.238C133.617 200.845 133.415 200.383 133.34 199.85C133.269 199.315 133.334 198.743 133.535 198.131C133.736 197.52 134.025 197.017 134.401 196.624C134.78 196.23 135.214 195.967 135.702 195.838C136.193 195.706 136.708 195.729 137.247 195.907C137.558 196.009 137.848 196.162 138.117 196.365C138.386 196.568 138.606 196.827 138.778 197.142C138.951 197.455 139.049 197.826 139.071 198.255C139.094 198.685 139.013 199.178 138.83 199.735L138.702 200.123L134.101 198.61L134.362 197.817L138.03 199.024C138.141 198.687 138.172 198.364 138.125 198.056C138.079 197.748 137.959 197.477 137.763 197.244C137.57 197.011 137.307 196.84 136.976 196.731C136.61 196.61 136.265 196.597 135.938 196.691C135.615 196.783 135.335 196.949 135.098 197.19C134.861 197.43 134.688 197.715 134.58 198.044L134.406 198.573C134.258 199.023 134.21 199.431 134.262 199.796C134.318 200.159 134.459 200.468 134.685 200.723C134.912 200.976 135.211 201.163 135.581 201.285C135.822 201.364 136.051 201.402 136.267 201.398C136.487 201.393 136.691 201.345 136.879 201.255C137.067 201.162 137.234 201.024 137.38 200.843L138.185 201.383C137.992 201.653 137.749 201.865 137.454 202.021C137.159 202.174 136.829 202.261 136.464 202.281C136.099 202.299 135.714 202.241 135.31 202.109ZM139.218 203.256L141.181 197.287L142.067 197.578L141.771 198.48L141.833 198.5C142.039 198.241 142.314 198.066 142.66 197.976C143.005 197.885 143.357 197.899 143.714 198.017C143.782 198.039 143.866 198.068 143.966 198.104C144.066 198.139 144.141 198.168 144.191 198.191L143.884 199.123C143.856 199.105 143.788 199.07 143.682 199.018C143.579 198.964 143.467 198.917 143.345 198.877C143.055 198.782 142.776 198.757 142.508 198.804C142.243 198.849 142.01 198.956 141.808 199.125C141.61 199.292 141.466 199.511 141.377 199.78L140.135 203.557L139.218 203.256ZM145.57 205.483C144.995 205.294 144.54 205.003 144.207 204.612C143.876 204.219 143.674 203.757 143.599 203.224C143.528 202.69 143.593 202.117 143.794 201.505C143.995 200.894 144.284 200.392 144.66 199.999C145.04 199.604 145.473 199.342 145.961 199.212C146.452 199.081 146.967 199.104 147.506 199.281C147.817 199.383 148.107 199.536 148.376 199.739C148.645 199.942 148.865 200.202 149.038 200.517C149.21 200.829 149.308 201.2 149.33 201.629C149.353 202.059 149.273 202.552 149.089 203.109L148.962 203.498L144.36 201.984L144.621 201.191L148.29 202.398C148.4 202.061 148.432 201.739 148.384 201.43C148.339 201.122 148.218 200.851 148.022 200.618C147.829 200.385 147.567 200.214 147.235 200.105C146.87 199.985 146.524 199.971 146.197 200.065C145.874 200.157 145.594 200.323 145.357 200.564C145.12 200.804 144.948 201.089 144.839 201.418L144.665 201.947C144.517 202.398 144.469 202.805 144.522 203.17C144.577 203.533 144.718 203.842 144.944 204.097C145.171 204.35 145.47 204.537 145.841 204.659C146.082 204.738 146.31 204.776 146.527 204.772C146.747 204.767 146.95 204.719 147.138 204.629C147.327 204.536 147.494 204.399 147.64 204.217L148.444 204.757C148.252 205.027 148.008 205.24 147.713 205.395C147.419 205.548 147.089 205.635 146.723 205.655C146.358 205.673 145.974 205.616 145.57 205.483ZM151.69 207.496C151.193 207.332 150.795 207.062 150.497 206.685C150.2 206.306 150.019 205.851 149.956 205.319C149.893 204.784 149.966 204.201 150.174 203.569C150.38 202.942 150.667 202.433 151.033 202.043C151.4 201.652 151.816 201.395 152.282 201.269C152.749 201.144 153.233 201.164 153.736 201.33C154.124 201.457 154.41 201.623 154.593 201.827C154.779 202.029 154.905 202.231 154.97 202.433C155.039 202.634 155.09 202.797 155.124 202.923L155.201 202.949L156.167 200.011L157.085 200.312L154.467 208.271L153.581 207.98L153.883 207.063L153.774 207.027C153.671 207.113 153.53 207.219 153.351 207.344C153.173 207.466 152.947 207.554 152.674 207.608C152.402 207.659 152.074 207.622 151.69 207.496ZM152.086 206.713C152.454 206.834 152.796 206.84 153.113 206.732C153.431 206.621 153.712 206.416 153.957 206.118C154.202 205.817 154.399 205.441 154.547 204.99C154.694 204.544 154.757 204.133 154.737 203.756C154.719 203.377 154.613 203.052 154.421 202.782C154.229 202.51 153.946 202.312 153.573 202.189C153.185 202.061 152.828 202.055 152.503 202.169C152.182 202.281 151.901 202.486 151.66 202.783C151.422 203.078 151.234 203.435 151.096 203.855C150.956 204.28 150.894 204.687 150.91 205.077C150.928 205.465 151.032 205.804 151.222 206.093C151.414 206.38 151.702 206.587 152.086 206.713ZM163.911 204.762L163.655 205.54L160.562 204.522L160.818 203.745L163.911 204.762ZM162.19 202.611L163.107 202.913L161.236 208.602C161.15 208.861 161.124 209.068 161.157 209.222C161.193 209.375 161.263 209.493 161.368 209.576C161.476 209.657 161.597 209.72 161.732 209.765C161.833 209.798 161.917 209.82 161.986 209.831C162.055 209.839 162.11 209.846 162.151 209.851L162.067 210.736C161.997 210.739 161.903 210.734 161.784 210.72C161.664 210.71 161.518 210.676 161.347 210.62C161.088 210.535 160.853 210.396 160.64 210.202C160.431 210.01 160.282 209.773 160.194 209.491C160.108 209.211 160.122 208.897 160.237 208.549L162.19 202.611ZM165.647 212.086C165.109 211.909 164.678 211.625 164.355 211.235C164.036 210.845 163.838 210.383 163.761 209.846C163.688 209.311 163.752 208.735 163.955 208.119C164.159 207.497 164.451 206.991 164.829 206.601C165.209 206.213 165.644 205.957 166.132 205.833C166.623 205.71 167.138 205.738 167.677 205.915C168.216 206.092 168.645 206.375 168.965 206.765C169.287 207.155 169.485 207.619 169.558 208.157C169.633 208.696 169.569 209.276 169.364 209.898C169.162 210.514 168.87 211.016 168.491 211.402C168.114 211.789 167.68 212.044 167.188 212.166C166.7 212.29 166.186 212.263 165.647 212.086ZM165.918 211.262C166.328 211.397 166.699 211.403 167.032 211.28C167.366 211.157 167.652 210.945 167.891 210.645C168.131 210.345 168.316 209.995 168.447 209.596C168.578 209.197 168.637 208.804 168.624 208.418C168.61 208.032 168.506 207.689 168.312 207.39C168.117 207.09 167.815 206.873 167.406 206.739C166.997 206.604 166.625 206.599 166.291 206.725C165.957 206.851 165.67 207.065 165.429 207.367C165.189 207.67 165.003 208.021 164.872 208.42C164.741 208.819 164.682 209.211 164.697 209.594C164.711 209.978 164.816 210.318 165.011 210.615C165.207 210.912 165.509 211.127 165.918 211.262ZM172.725 216.756C172.57 216.705 172.436 216.647 172.322 216.581C172.208 216.518 172.132 216.466 172.093 216.428L172.592 215.696C172.796 215.826 172.986 215.912 173.162 215.953C173.338 215.993 173.515 215.967 173.692 215.873C173.871 215.783 174.066 215.604 174.277 215.338L174.602 214.927L174.368 208.201L175.362 208.529L175.446 213.827L175.508 213.848L178.72 209.633L179.715 209.96L174.932 215.966C174.716 216.237 174.491 216.446 174.256 216.593C174.021 216.742 173.775 216.829 173.52 216.854C173.267 216.88 173.003 216.848 172.725 216.756ZM181.133 217.179C180.594 217.002 180.163 216.718 179.841 216.328C179.521 215.938 179.323 215.475 179.247 214.939C179.173 214.404 179.237 213.828 179.44 213.211C179.645 212.59 179.936 212.084 180.314 211.694C180.694 211.306 181.129 211.049 181.617 210.926C182.108 210.803 182.623 210.83 183.162 211.008C183.701 211.185 184.13 211.468 184.45 211.858C184.773 212.248 184.97 212.712 185.043 213.25C185.119 213.789 185.054 214.369 184.85 214.991C184.647 215.607 184.356 216.109 183.976 216.495C183.599 216.882 183.165 217.137 182.674 217.259C182.185 217.383 181.672 217.356 181.133 217.179ZM181.404 216.355C181.813 216.49 182.184 216.495 182.518 216.372C182.851 216.25 183.137 216.038 183.377 215.738C183.616 215.437 183.801 215.088 183.933 214.689C184.064 214.29 184.123 213.897 184.109 213.511C184.095 213.125 183.991 212.782 183.797 212.482C183.603 212.183 183.301 211.966 182.891 211.831C182.482 211.697 182.11 211.692 181.776 211.818C181.442 211.943 181.155 212.158 180.915 212.46C180.674 212.763 180.489 213.114 180.357 213.513C180.226 213.912 180.168 214.303 180.182 214.687C180.197 215.071 180.302 215.411 180.497 215.708C180.692 216.005 180.994 216.22 181.404 216.355ZM189.843 217.201L191.003 213.673L191.92 213.974L189.957 219.943L189.04 219.642L189.372 218.631L189.31 218.611C189.071 218.868 188.768 219.054 188.403 219.169C188.039 219.282 187.631 219.264 187.18 219.116C186.807 218.993 186.502 218.803 186.266 218.544C186.03 218.283 185.884 217.959 185.827 217.573C185.771 217.184 185.827 216.736 185.994 216.228L187.241 212.435L188.159 212.737L186.932 216.468C186.788 216.903 186.796 217.29 186.954 217.629C187.115 217.969 187.386 218.202 187.767 218.327C187.995 218.402 188.246 218.42 188.52 218.381C188.797 218.343 189.055 218.23 189.295 218.042C189.537 217.854 189.72 217.574 189.843 217.201ZM191.637 220.496L193.6 214.527L194.486 214.818L194.19 215.72L194.252 215.74C194.458 215.48 194.733 215.306 195.079 215.215C195.424 215.125 195.776 215.139 196.133 215.256C196.201 215.279 196.285 215.308 196.385 215.343C196.485 215.379 196.56 215.408 196.61 215.43L196.303 216.363C196.275 216.345 196.208 216.31 196.101 216.258C195.998 216.204 195.886 216.157 195.764 216.117C195.474 216.021 195.195 215.997 194.927 216.044C194.662 216.089 194.429 216.196 194.227 216.365C194.029 216.532 193.885 216.751 193.796 217.02L192.554 220.797L191.637 220.496ZM198.911 222.888L201.528 214.929L202.445 215.231L201.479 218.169L201.557 218.194C201.658 218.113 201.795 218.011 201.967 217.89C202.143 217.767 202.364 217.679 202.631 217.626C202.902 217.571 203.231 217.608 203.62 217.736C204.122 217.901 204.524 218.172 204.825 218.55C205.126 218.927 205.308 219.382 205.371 219.914C205.435 220.446 205.363 221.025 205.157 221.652C204.949 222.284 204.661 222.797 204.294 223.19C203.927 223.58 203.511 223.84 203.047 223.968C202.584 224.094 202.103 224.076 201.606 223.912C201.222 223.786 200.936 223.622 200.747 223.419C200.559 223.213 200.43 223.009 200.359 222.805C200.29 222.598 200.239 222.429 200.207 222.298L200.098 222.262L199.797 223.179L198.911 222.888ZM200.794 220.2C200.646 220.651 200.581 221.07 200.6 221.458C200.619 221.844 200.724 222.175 200.914 222.453C201.105 222.728 201.384 222.926 201.752 223.047C202.136 223.173 202.489 223.178 202.812 223.06C203.138 222.94 203.423 222.73 203.666 222.428C203.912 222.124 204.105 221.76 204.245 221.335C204.383 220.915 204.443 220.516 204.424 220.136C204.408 219.755 204.304 219.423 204.109 219.141C203.918 218.858 203.629 218.652 203.24 218.524C202.867 218.401 202.522 218.393 202.206 218.498C201.891 218.601 201.613 218.8 201.373 219.094C201.134 219.386 200.941 219.754 200.794 220.2ZM207.294 225.8C206.916 225.676 206.596 225.492 206.334 225.248C206.074 225.001 205.897 224.712 205.806 224.38C205.715 224.046 205.733 223.685 205.861 223.296C205.973 222.954 206.132 222.699 206.336 222.531C206.542 222.36 206.777 222.251 207.043 222.203C207.308 222.156 207.587 222.147 207.878 222.177C208.173 222.205 208.465 222.246 208.755 222.301C209.133 222.374 209.438 222.436 209.671 222.487C209.908 222.536 210.088 222.547 210.211 222.522C210.337 222.497 210.424 222.411 210.472 222.263L210.483 222.232C210.609 221.849 210.602 221.516 210.462 221.235C210.324 220.954 210.045 220.745 209.622 220.606C209.184 220.462 208.81 220.445 208.498 220.555C208.186 220.665 207.944 220.812 207.771 220.996L207.003 220.399C207.278 220.087 207.578 219.873 207.904 219.756C208.232 219.638 208.564 219.589 208.899 219.61C209.237 219.629 209.557 219.688 209.857 219.787C210.049 219.85 210.261 219.946 210.495 220.074C210.732 220.201 210.944 220.373 211.131 220.589C211.32 220.807 211.447 221.082 211.509 221.416C211.572 221.749 211.525 222.153 211.369 222.627L210.076 226.56L209.159 226.258L209.424 225.45L209.378 225.435C209.273 225.544 209.124 225.648 208.93 225.748C208.736 225.848 208.502 225.91 208.227 225.935C207.952 225.959 207.641 225.914 207.294 225.8ZM207.705 225.022C208.067 225.142 208.397 225.171 208.692 225.11C208.99 225.05 209.24 224.929 209.441 224.745C209.645 224.562 209.787 224.346 209.869 224.098L210.145 223.258C210.091 223.292 209.992 223.307 209.847 223.302C209.705 223.296 209.544 223.279 209.364 223.251C209.187 223.222 209.015 223.191 208.847 223.159C208.683 223.125 208.55 223.098 208.447 223.079C208.199 223.031 207.959 223.009 207.729 223.01C207.502 223.011 207.303 223.058 207.131 223.154C206.962 223.248 206.839 223.411 206.763 223.644C206.658 223.963 206.696 224.243 206.878 224.483C207.064 224.723 207.339 224.902 207.705 225.022ZM213.848 223.821L212.667 227.412L211.75 227.11L213.713 221.141L214.599 221.433L214.292 222.365L214.37 222.391C214.609 222.134 214.902 221.96 215.247 221.87C215.594 221.777 215.992 221.805 216.443 221.953C216.847 222.086 217.174 222.285 217.422 222.551C217.672 222.814 217.826 223.14 217.884 223.53C217.943 223.917 217.89 224.364 217.723 224.872L216.475 228.665L215.558 228.363L216.785 224.632C216.939 224.163 216.938 223.758 216.78 223.416C216.624 223.072 216.333 222.83 215.908 222.69C215.615 222.594 215.333 222.571 215.06 222.622C214.791 222.674 214.55 222.8 214.337 223C214.125 223.201 213.962 223.474 213.848 223.821ZM219.722 227.321L220.079 226.181L220.266 226.242L223.752 224.443L224.886 224.816L221.179 226.715L221.101 226.689L219.722 227.321ZM218.151 229.216L220.769 221.257L221.686 221.559L219.068 229.517L218.151 229.216ZM221.944 230.463L220.584 226.743L221.446 226.32L223.11 230.847L221.944 230.463ZM228.892 232.903C228.514 232.779 228.194 232.595 227.932 232.351C227.672 232.104 227.496 231.815 227.404 231.484C227.313 231.149 227.331 230.788 227.459 230.399C227.571 230.057 227.73 229.802 227.935 229.634C228.14 229.464 228.375 229.354 228.641 229.307C228.906 229.259 229.185 229.25 229.476 229.28C229.772 229.308 230.064 229.35 230.353 229.405C230.731 229.477 231.036 229.539 231.269 229.59C231.506 229.639 231.686 229.651 231.809 229.625C231.935 229.601 232.022 229.514 232.071 229.367L232.081 229.336C232.207 228.952 232.2 228.62 232.06 228.338C231.923 228.058 231.643 227.848 231.22 227.709C230.783 227.565 230.408 227.548 230.096 227.658C229.784 227.768 229.542 227.915 229.37 228.099L228.601 227.502C228.876 227.191 229.176 226.976 229.502 226.86C229.831 226.741 230.162 226.692 230.497 226.713C230.835 226.733 231.155 226.792 231.455 226.89C231.647 226.954 231.859 227.049 232.093 227.178C232.33 227.304 232.542 227.476 232.729 227.693C232.919 227.91 233.045 228.186 233.107 228.519C233.17 228.853 233.123 229.256 232.967 229.73L231.674 233.663L230.757 233.362L231.023 232.553L230.976 232.538C230.871 232.647 230.722 232.752 230.528 232.852C230.335 232.952 230.1 233.014 229.825 233.038C229.55 233.062 229.239 233.018 228.892 232.903ZM229.303 232.126C229.666 232.245 229.995 232.274 230.29 232.213C230.588 232.154 230.838 232.032 231.039 231.848C231.243 231.665 231.386 231.45 231.467 231.201L231.743 230.362C231.689 230.395 231.59 230.41 231.445 230.405C231.303 230.399 231.142 230.382 230.962 230.354C230.785 230.325 230.613 230.294 230.445 230.262C230.281 230.228 230.148 230.201 230.045 230.182C229.797 230.135 229.557 230.112 229.327 230.114C229.1 230.114 228.901 230.162 228.729 230.257C228.56 230.351 228.437 230.515 228.361 230.748C228.256 231.066 228.295 231.346 228.477 231.587C228.662 231.826 228.938 232.005 229.303 232.126ZM235.732 235.136C235.172 234.952 234.734 234.661 234.417 234.264C234.099 233.867 233.908 233.4 233.843 232.865C233.778 232.33 233.843 231.764 234.039 231.168C234.239 230.562 234.526 230.064 234.901 229.673C235.28 229.281 235.713 229.02 236.201 228.891C236.692 228.759 237.207 228.782 237.746 228.959C238.166 229.097 238.518 229.3 238.804 229.566C239.09 229.832 239.294 230.14 239.417 230.491C239.54 230.841 239.566 231.212 239.495 231.602L238.578 231.3C238.598 231.005 238.521 230.713 238.349 230.424C238.181 230.133 237.895 229.921 237.49 229.788C237.133 229.671 236.789 229.661 236.458 229.759C236.131 229.855 235.836 230.047 235.575 230.334C235.318 230.62 235.115 230.988 234.967 231.439C234.815 231.9 234.755 232.325 234.788 232.715C234.823 233.106 234.943 233.439 235.148 233.716C235.355 233.994 235.64 234.193 236.003 234.312C236.241 234.39 236.471 234.42 236.693 234.401C236.914 234.382 237.118 234.317 237.304 234.206C237.49 234.095 237.647 233.94 237.775 233.741L238.693 234.042C238.525 234.378 238.292 234.653 237.995 234.868C237.701 235.081 237.359 235.216 236.97 235.272C236.585 235.326 236.172 235.281 235.732 235.136ZM241.845 237.146C241.285 236.962 240.847 236.671 240.529 236.274C240.212 235.877 240.021 235.411 239.956 234.876C239.891 234.34 239.956 233.775 240.152 233.179C240.352 232.573 240.639 232.074 241.014 231.684C241.393 231.291 241.826 231.031 242.314 230.901C242.805 230.77 243.32 230.793 243.859 230.97C244.278 231.108 244.631 231.31 244.917 231.576C245.203 231.842 245.407 232.151 245.53 232.501C245.653 232.852 245.679 233.222 245.608 233.612L244.691 233.311C244.71 233.016 244.634 232.724 244.462 232.434C244.294 232.144 244.008 231.932 243.603 231.799C243.246 231.681 242.902 231.671 242.571 231.769C242.244 231.865 241.949 232.057 241.688 232.345C241.431 232.63 241.228 232.999 241.08 233.449C240.928 233.91 240.868 234.336 240.901 234.726C240.936 235.116 241.056 235.45 241.261 235.727C241.468 236.004 241.753 236.203 242.116 236.322C242.354 236.401 242.584 236.43 242.806 236.411C243.027 236.392 243.231 236.327 243.417 236.216C243.603 236.105 243.76 235.95 243.888 235.751L244.805 236.053C244.638 236.388 244.405 236.663 244.108 236.878C243.813 237.092 243.472 237.226 243.083 237.282C242.698 237.336 242.285 237.291 241.845 237.146ZM247.958 239.157C247.419 238.979 246.988 238.696 246.666 238.305C246.346 237.916 246.148 237.453 246.072 236.917C245.998 236.382 246.062 235.806 246.265 235.189C246.47 234.567 246.761 234.062 247.139 233.672C247.519 233.283 247.954 233.027 248.442 232.904C248.933 232.781 249.448 232.808 249.987 232.985C250.526 233.163 250.955 233.446 251.275 233.835C251.598 234.226 251.795 234.69 251.868 235.228C251.944 235.766 251.879 236.347 251.675 236.968C251.472 237.585 251.181 238.086 250.801 238.472C250.424 238.859 249.99 239.114 249.499 239.237C249.01 239.361 248.496 239.334 247.958 239.157ZM248.229 238.333C248.638 238.467 249.009 238.473 249.342 238.35C249.676 238.227 249.962 238.016 250.202 237.715C250.441 237.415 250.626 237.066 250.757 236.667C250.889 236.268 250.947 235.875 250.934 235.489C250.92 235.102 250.816 234.76 250.622 234.46C250.427 234.161 250.126 233.944 249.716 233.809C249.307 233.675 248.935 233.67 248.601 233.796C248.267 233.921 247.98 234.135 247.739 234.438C247.499 234.741 247.313 235.092 247.182 235.491C247.051 235.89 246.993 236.281 247.007 236.665C247.022 237.049 247.126 237.389 247.322 237.686C247.517 237.982 247.819 238.198 248.229 238.333ZM252.103 240.382L254.066 234.413L254.984 234.715L253.02 240.684L252.103 240.382ZM254.86 233.572C254.681 233.513 254.547 233.401 254.458 233.237C254.371 233.073 254.355 232.906 254.412 232.735C254.468 232.564 254.579 232.439 254.746 232.359C254.916 232.279 255.09 232.269 255.269 232.328C255.448 232.387 255.58 232.498 255.667 232.662C255.757 232.826 255.774 232.994 255.717 233.165C255.661 233.336 255.548 233.461 255.379 233.54C255.212 233.62 255.039 233.63 254.86 233.572ZM256.798 237.947L255.617 241.538L254.7 241.236L256.663 235.267L257.549 235.559L257.243 236.491L257.32 236.517C257.56 236.26 257.852 236.086 258.198 235.996C258.544 235.903 258.943 235.931 259.394 236.079C259.798 236.212 260.124 236.411 260.373 236.677C260.622 236.94 260.776 237.266 260.835 237.655C260.894 238.042 260.84 238.49 260.673 238.998L259.426 242.79L258.509 242.489L259.736 238.758C259.89 238.289 259.888 237.884 259.731 237.542C259.574 237.198 259.283 236.956 258.858 236.816C258.566 236.72 258.283 236.697 258.011 236.748C257.741 236.8 257.5 236.926 257.288 237.126C257.076 237.326 256.912 237.6 256.798 237.947ZM265.661 238.226L265.405 239.004L262.312 237.986L262.567 237.209L265.661 238.226ZM263.939 236.075L264.856 236.377L262.985 242.066C262.9 242.325 262.874 242.532 262.906 242.686C262.942 242.839 263.013 242.957 263.117 243.04C263.225 243.121 263.347 243.184 263.481 243.229C263.583 243.262 263.667 243.284 263.735 243.295C263.804 243.303 263.86 243.31 263.901 243.315L263.817 244.2C263.747 244.203 263.652 244.198 263.533 244.184C263.413 244.174 263.268 244.14 263.097 244.084C262.838 243.999 262.602 243.86 262.39 243.666C262.181 243.474 262.032 243.237 261.943 242.955C261.858 242.675 261.872 242.361 261.986 242.013L263.939 236.075Z" fill="#7D7D7D"/>
<rect x="61.0344" y="214.115" width="235.44" height="37.44" rx="4.32" transform="rotate(18.2053 61.0344 214.115)" fill="#3478F6"/>
<path d="M150.959 261.552L149.506 261.074C149.542 260.822 149.536 260.586 149.485 260.366C149.435 260.142 149.348 259.939 149.225 259.755C149.102 259.571 148.944 259.411 148.753 259.277C148.566 259.14 148.35 259.032 148.106 258.952C147.674 258.81 147.254 258.792 146.849 258.9C146.444 259.005 146.078 259.235 145.752 259.59C145.426 259.942 145.165 260.418 144.968 261.016C144.768 261.625 144.694 262.169 144.746 262.649C144.801 263.126 144.96 263.526 145.222 263.847C145.487 264.167 145.835 264.398 146.265 264.539C146.503 264.617 146.736 264.66 146.964 264.666C147.195 264.67 147.414 264.637 147.62 264.567C147.83 264.498 148.021 264.392 148.195 264.248C148.371 264.105 148.52 263.924 148.64 263.705L150.091 264.191C149.912 264.552 149.678 264.868 149.387 265.14C149.099 265.412 148.769 265.628 148.395 265.787C148.022 265.942 147.618 266.028 147.183 266.042C146.748 266.054 146.294 265.983 145.82 265.827C145.12 265.597 144.549 265.229 144.106 264.725C143.663 264.22 143.385 263.61 143.27 262.895C143.155 262.18 143.238 261.395 143.519 260.54C143.801 259.682 144.201 259.001 144.72 258.497C145.24 257.991 145.828 257.666 146.484 257.523C147.139 257.379 147.814 257.422 148.509 257.65C148.952 257.796 149.343 257.994 149.683 258.243C150.023 258.493 150.302 258.787 150.521 259.126C150.741 259.462 150.889 259.836 150.967 260.246C151.048 260.654 151.045 261.09 150.959 261.552ZM153.048 268.213C152.465 268.021 152.002 267.727 151.659 267.329C151.316 266.932 151.102 266.464 151.018 265.926C150.937 265.388 150.997 264.811 151.2 264.194C151.403 263.578 151.697 263.076 152.083 262.689C152.471 262.302 152.921 262.051 153.433 261.935C153.945 261.82 154.492 261.858 155.075 262.049C155.658 262.241 156.121 262.535 156.464 262.932C156.807 263.329 157.019 263.798 157.1 264.339C157.183 264.88 157.123 265.459 156.921 266.075C156.718 266.692 156.423 267.192 156.035 267.576C155.65 267.96 155.202 268.21 154.69 268.326C154.178 268.442 153.631 268.404 153.048 268.213ZM153.427 267.088C153.743 267.192 154.035 267.192 154.305 267.089C154.575 266.982 154.811 266.798 155.012 266.537C155.215 266.277 155.376 265.965 155.496 265.603C155.616 265.237 155.671 264.889 155.662 264.559C155.657 264.227 155.576 263.938 155.422 263.692C155.267 263.446 155.032 263.271 154.716 263.167C154.392 263.061 154.094 263.06 153.821 263.166C153.551 263.272 153.313 263.456 153.109 263.719C152.908 263.981 152.748 264.294 152.628 264.659C152.508 265.022 152.452 265.368 152.458 265.698C152.468 266.028 152.549 266.316 152.704 266.562C152.862 266.806 153.103 266.982 153.427 267.088ZM159.698 266.395L158.547 269.892L157.141 269.429L159.104 263.46L160.448 263.903L160.115 264.917L160.185 264.94C160.432 264.651 160.738 264.457 161.104 264.359C161.471 264.262 161.878 264.287 162.324 264.433C162.736 264.569 163.066 264.775 163.313 265.051C163.564 265.329 163.718 265.663 163.777 266.052C163.838 266.443 163.789 266.876 163.629 267.352L162.379 271.152L160.972 270.69L162.151 267.107C162.282 266.708 162.281 266.361 162.148 266.068C162.017 265.775 161.771 265.569 161.408 265.45C161.162 265.369 160.925 265.351 160.698 265.397C160.474 265.441 160.274 265.546 160.099 265.712C159.926 265.88 159.792 266.107 159.698 266.395ZM168.753 266.634L168.395 267.722L164.964 266.593L165.322 265.505L168.753 266.634ZM166.639 264.354L168.046 264.816L166.203 270.42C166.141 270.609 166.121 270.764 166.145 270.884C166.172 271.002 166.228 271.095 166.312 271.162C166.396 271.23 166.496 271.283 166.613 271.322C166.701 271.351 166.783 271.371 166.86 271.381C166.939 271.393 167 271.4 167.043 271.403L166.918 272.58C166.834 272.582 166.717 272.575 166.567 272.56C166.42 272.546 166.245 272.509 166.044 272.448C165.688 272.343 165.388 272.185 165.144 271.976C164.901 271.764 164.738 271.506 164.654 271.203C164.572 270.9 164.594 270.563 164.719 270.191L166.639 264.354ZM167.966 272.99L169.93 267.021L171.336 267.483L169.373 273.453L167.966 272.99ZM170.915 266.406C170.693 266.333 170.525 266.196 170.413 265.996C170.302 265.792 170.281 265.586 170.35 265.376C170.42 265.164 170.559 265.01 170.769 264.915C170.979 264.818 171.195 264.806 171.418 264.879C171.643 264.953 171.81 265.091 171.919 265.294C172.031 265.494 172.052 265.7 171.982 265.913C171.913 266.123 171.774 266.276 171.563 266.374C171.357 266.47 171.141 266.48 170.915 266.406ZM173.377 270.893L172.227 274.391L170.82 273.928L172.783 267.959L174.128 268.401L173.794 269.416L173.864 269.439C174.111 269.15 174.417 268.956 174.783 268.858C175.151 268.761 175.557 268.786 176.003 268.932C176.415 269.068 176.745 269.274 176.992 269.55C177.243 269.828 177.397 270.162 177.456 270.551C177.517 270.942 177.468 271.375 177.308 271.851L176.058 275.651L174.652 275.189L175.83 271.605C175.961 271.207 175.96 270.86 175.827 270.567C175.697 270.274 175.45 270.068 175.087 269.949C174.841 269.868 174.604 269.85 174.377 269.896C174.153 269.94 173.953 270.045 173.778 270.211C173.605 270.379 173.471 270.606 173.377 270.893ZM182.119 274.862L183.256 271.404L184.663 271.866L182.7 277.835L181.336 277.387L181.685 276.326L181.622 276.305C181.378 276.595 181.066 276.796 180.688 276.907C180.313 277.019 179.901 277.001 179.453 276.854C179.061 276.725 178.744 276.524 178.501 276.252C178.261 275.978 178.111 275.646 178.053 275.256C177.995 274.864 178.045 274.43 178.202 273.953L179.452 270.152L180.858 270.615L179.68 274.198C179.556 274.576 179.56 274.911 179.694 275.202C179.828 275.493 180.064 275.694 180.401 275.805C180.608 275.873 180.825 275.888 181.053 275.851C181.28 275.814 181.489 275.716 181.679 275.557C181.872 275.397 182.019 275.165 182.119 274.862ZM186.751 279.297C186.152 279.1 185.676 278.806 185.323 278.414C184.973 278.02 184.757 277.556 184.674 277.021C184.593 276.483 184.655 275.902 184.86 275.277C185.062 274.663 185.356 274.163 185.741 273.776C186.131 273.387 186.579 273.132 187.086 273.012C187.595 272.889 188.134 272.922 188.704 273.109C189.072 273.23 189.399 273.404 189.686 273.63C189.977 273.855 190.208 274.132 190.378 274.461C190.551 274.79 190.647 275.17 190.667 275.598C190.688 276.024 190.612 276.499 190.44 277.022L190.298 277.453L185.406 275.844L185.717 274.896L189.262 276.062C189.348 275.791 189.368 275.533 189.323 275.285C189.279 275.035 189.175 274.816 189.01 274.627C188.848 274.439 188.632 274.3 188.363 274.211C188.075 274.117 187.8 274.104 187.536 274.172C187.273 274.238 187.044 274.363 186.848 274.549C186.656 274.732 186.514 274.957 186.424 275.223L186.152 276.051C186.037 276.398 186.003 276.717 186.048 277.007C186.094 277.295 186.209 277.543 186.394 277.75C186.579 277.954 186.825 278.107 187.13 278.207C187.335 278.275 187.53 278.307 187.714 278.305C187.9 278.3 188.072 278.26 188.231 278.186C188.391 278.112 188.529 278.001 188.646 277.853L189.911 278.433C189.714 278.753 189.457 279.004 189.138 279.186C188.823 279.367 188.462 279.469 188.055 279.493C187.649 279.515 187.214 279.449 186.751 279.297Z" fill="white"/>
<circle cx="219.992" cy="108.742" r="28.8" transform="rotate(-161.795 219.992 108.742)" stroke="url(#paint0_linear_1_213)" stroke-width="1.44"/>
<circle cx="219.992" cy="108.742" r="28.8" transform="rotate(-161.795 219.992 108.742)" stroke="#3478F6" stroke-width="1.44"/>
<path d="M233.096 104.25L214.462 113.661L210.184 105.19" stroke="#3478F6" stroke-width="2.88" stroke-linecap="round" stroke-linejoin="round"/>
<path d="M134.085 158.599L137.193 149.148L140.738 150.313C141.464 150.552 142.028 150.888 142.431 151.32C142.838 151.754 143.089 152.249 143.186 152.806C143.286 153.361 143.238 153.938 143.04 154.538C142.841 155.144 142.536 155.64 142.126 156.027C141.716 156.414 141.217 156.66 140.63 156.767C140.043 156.871 139.386 156.803 138.656 156.563L136.307 155.791L136.77 154.383L138.889 155.08C139.313 155.219 139.685 155.26 140.004 155.201C140.324 155.143 140.59 155.005 140.805 154.789C141.022 154.575 141.186 154.299 141.296 153.964C141.406 153.629 141.437 153.312 141.389 153.013C141.344 152.715 141.207 152.45 140.98 152.219C140.757 151.985 140.432 151.798 140.004 151.657L138.435 151.141L135.797 159.162L134.085 158.599ZM144.24 162.097C143.791 161.949 143.413 161.736 143.105 161.458C142.802 161.177 142.598 160.844 142.493 160.459C142.391 160.074 142.417 159.649 142.569 159.185C142.701 158.785 142.883 158.478 143.117 158.266C143.351 158.053 143.621 157.91 143.928 157.837C144.235 157.764 144.562 157.74 144.908 157.765C145.258 157.788 145.612 157.838 145.969 157.915C146.398 158.008 146.748 158.08 147.017 158.132C147.288 158.18 147.494 158.186 147.635 158.151C147.78 158.113 147.879 158.014 147.932 157.854L147.941 157.827C148.055 157.479 148.041 157.176 147.897 156.918C147.754 156.659 147.488 156.466 147.101 156.338C146.691 156.204 146.337 156.186 146.039 156.286C145.743 156.386 145.514 156.545 145.351 156.76L143.864 156.026C144.129 155.636 144.45 155.342 144.828 155.146C145.207 154.947 145.625 154.842 146.082 154.832C146.54 154.819 147.016 154.894 147.512 155.057C147.853 155.169 148.18 155.321 148.492 155.513C148.804 155.704 149.07 155.938 149.289 156.215C149.509 156.488 149.653 156.81 149.719 157.179C149.788 157.55 149.745 157.97 149.59 158.441L148.03 163.185L146.424 162.657L146.744 161.683L146.689 161.665C146.522 161.828 146.319 161.966 146.077 162.077C145.84 162.187 145.566 162.248 145.255 162.262C144.948 162.273 144.609 162.218 144.24 162.097ZM145.078 161.012C145.413 161.122 145.725 161.152 146.015 161.101C146.306 161.046 146.554 160.93 146.759 160.752C146.967 160.575 147.114 160.356 147.2 160.094L147.475 159.259C147.408 159.285 147.306 159.295 147.168 159.291C147.032 159.287 146.883 159.274 146.72 159.251C146.558 159.228 146.397 159.203 146.239 159.175C146.082 159.147 145.945 159.122 145.829 159.101C145.569 159.053 145.327 159.035 145.105 159.047C144.883 159.059 144.692 159.116 144.533 159.217C144.374 159.315 144.26 159.472 144.189 159.687C144.088 159.995 144.124 160.264 144.297 160.494C144.47 160.725 144.73 160.898 145.078 161.012ZM149.62 166.653C149.392 166.579 149.188 166.491 149.006 166.39C148.826 166.294 148.687 166.203 148.588 166.12L149.404 164.946C149.624 165.097 149.83 165.202 150.021 165.262C150.213 165.321 150.401 165.316 150.584 165.247C150.769 165.182 150.956 165.032 151.146 164.798L151.415 164.462L151.224 156.38L152.996 156.963L152.869 162.854L152.943 162.878L156.342 158.064L158.118 158.648L152.667 165.661C152.411 165.993 152.13 166.257 151.824 166.453C151.516 166.651 151.181 166.77 150.817 166.807C150.456 166.848 150.057 166.797 149.62 166.653ZM156.943 166.116L159.274 159.028L160.871 159.553L160.475 160.758L160.558 160.785C160.839 160.427 161.188 160.191 161.605 160.076C162.022 159.957 162.467 159.976 162.941 160.132C163.421 160.29 163.787 160.54 164.04 160.882C164.296 161.222 164.426 161.614 164.43 162.058L164.504 162.083C164.79 161.74 165.158 161.514 165.607 161.402C166.06 161.289 166.544 161.317 167.058 161.486C167.71 161.7 168.174 162.081 168.451 162.629C168.728 163.177 168.736 163.846 168.476 164.637L166.911 169.395L165.236 168.844L166.716 164.344C166.86 163.904 166.849 163.544 166.682 163.264C166.516 162.981 166.264 162.784 165.926 162.673C165.523 162.54 165.166 162.563 164.855 162.74C164.549 162.916 164.33 163.203 164.198 163.603L162.744 168.024L161.106 167.485L162.608 162.917C162.729 162.551 162.714 162.222 162.564 161.931C162.418 161.64 162.168 161.437 161.814 161.321C161.574 161.242 161.335 161.231 161.098 161.29C160.861 161.345 160.648 161.464 160.459 161.647C160.27 161.827 160.127 162.063 160.031 162.356L158.614 166.666L156.943 166.116ZM171.698 171.123C170.988 170.889 170.423 170.539 170.003 170.074C169.587 169.607 169.331 169.055 169.233 168.419C169.136 167.781 169.209 167.091 169.453 166.349C169.693 165.62 170.042 165.026 170.5 164.566C170.962 164.104 171.494 163.802 172.097 163.659C172.701 163.514 173.341 163.552 174.018 163.775C174.455 163.918 174.844 164.125 175.185 164.394C175.53 164.661 175.804 164.989 176.006 165.38C176.211 165.771 176.326 166.221 176.349 166.73C176.374 167.236 176.284 167.8 176.08 168.421L175.911 168.933L170.101 167.023L170.472 165.897L174.68 167.281C174.782 166.96 174.807 166.652 174.753 166.359C174.701 166.062 174.577 165.801 174.382 165.577C174.189 165.353 173.933 165.189 173.613 165.084C173.271 164.971 172.944 164.956 172.631 165.037C172.319 165.115 172.047 165.264 171.814 165.484C171.586 165.702 171.418 165.969 171.31 166.285L170.987 167.268C170.852 167.68 170.811 168.059 170.864 168.404C170.919 168.746 171.056 169.039 171.275 169.285C171.495 169.528 171.786 169.709 172.15 169.829C172.393 169.909 172.624 169.947 172.843 169.944C173.063 169.938 173.268 169.891 173.457 169.804C173.646 169.716 173.81 169.584 173.95 169.408L175.452 170.097C175.218 170.477 174.912 170.775 174.534 170.991C174.16 171.206 173.731 171.327 173.248 171.356C172.766 171.381 172.249 171.304 171.698 171.123ZM179.346 168.882L177.98 173.035L176.309 172.486L178.64 165.397L180.237 165.922L179.841 167.127L179.924 167.154C180.218 166.811 180.581 166.581 181.015 166.465C181.452 166.349 181.935 166.378 182.464 166.552C182.953 166.713 183.345 166.958 183.639 167.287C183.936 167.616 184.12 168.012 184.189 168.475C184.262 168.939 184.203 169.453 184.014 170.018L182.53 174.531L180.859 173.982L182.259 169.727C182.415 169.253 182.413 168.842 182.255 168.494C182.1 168.146 181.807 167.901 181.377 167.76C181.084 167.664 180.803 167.643 180.533 167.697C180.267 167.749 180.03 167.874 179.822 168.072C179.617 168.27 179.458 168.54 179.346 168.882ZM190.099 169.166L189.674 170.458L185.599 169.118L186.024 167.826L190.099 169.166ZM187.589 166.458L189.259 167.008L187.071 173.662C186.997 173.887 186.974 174.07 187.002 174.212C187.034 174.353 187.1 174.463 187.2 174.543C187.3 174.624 187.419 174.687 187.557 174.732C187.662 174.767 187.76 174.791 187.851 174.804C187.945 174.817 188.017 174.826 188.068 174.829L187.92 176.227C187.82 176.229 187.681 176.221 187.503 176.203C187.328 176.186 187.121 176.142 186.882 176.07C186.46 175.945 186.103 175.758 185.814 175.509C185.525 175.257 185.331 174.951 185.231 174.591C185.134 174.232 185.16 173.832 185.309 173.39L187.589 166.458ZM199.852 172.634C199.942 172.217 199.863 171.844 199.617 171.514C199.374 171.185 198.999 170.937 198.491 170.77C198.134 170.653 197.811 170.606 197.52 170.63C197.229 170.653 196.986 170.735 196.79 170.875C196.593 171.015 196.455 171.203 196.374 171.439C196.309 171.636 196.298 171.821 196.339 171.995C196.384 172.17 196.468 172.334 196.592 172.488C196.716 172.638 196.863 172.778 197.031 172.908C197.2 173.039 197.373 173.159 197.552 173.269L198.365 173.782C198.695 173.982 199.001 174.207 199.283 174.457C199.569 174.708 199.807 174.984 199.998 175.285C200.192 175.588 200.315 175.916 200.369 176.272C200.423 176.627 200.382 177.009 200.248 177.418C200.066 177.972 199.764 178.413 199.342 178.741C198.921 179.067 198.404 179.26 197.791 179.321C197.182 179.379 196.499 179.284 195.742 179.035C195.007 178.793 194.406 178.47 193.939 178.064C193.476 177.659 193.164 177.188 193.003 176.651C192.845 176.115 192.857 175.529 193.039 174.894L194.723 175.448C194.64 175.785 194.651 176.092 194.758 176.369C194.864 176.646 195.043 176.886 195.294 177.088C195.547 177.29 195.853 177.45 196.21 177.568C196.582 177.69 196.926 177.742 197.243 177.723C197.563 177.703 197.836 177.619 198.062 177.471C198.289 177.321 198.448 177.111 198.54 176.841C198.618 176.594 198.613 176.367 198.524 176.161C198.436 175.951 198.282 175.75 198.062 175.559C197.846 175.365 197.583 175.169 197.273 174.972L196.289 174.341C195.576 173.885 195.061 173.38 194.742 172.825C194.427 172.268 194.381 171.651 194.604 170.975C194.787 170.418 195.098 169.98 195.537 169.66C195.979 169.342 196.5 169.154 197.099 169.095C197.699 169.033 198.329 169.111 198.991 169.329C199.662 169.549 200.211 169.859 200.638 170.259C201.07 170.657 201.363 171.109 201.516 171.617C201.671 172.121 201.665 172.641 201.5 173.176L199.852 172.634ZM206.326 179.054L207.677 174.947L209.347 175.496L207.016 182.585L205.396 182.052L205.81 180.792L205.737 180.768C205.446 181.112 205.076 181.35 204.627 181.482C204.181 181.615 203.692 181.594 203.16 181.419C202.695 181.266 202.319 181.028 202.029 180.704C201.744 180.379 201.567 179.985 201.498 179.522C201.429 179.056 201.488 178.54 201.674 177.974L203.159 173.461L204.829 174.01L203.43 178.265C203.282 178.714 203.288 179.112 203.447 179.457C203.606 179.803 203.886 180.041 204.286 180.173C204.532 180.254 204.79 180.272 205.06 180.228C205.33 180.184 205.578 180.068 205.804 179.879C206.033 179.689 206.207 179.414 206.326 179.054ZM211.78 184.305C211.073 184.072 210.516 183.717 210.111 183.239C209.708 182.763 209.46 182.205 209.366 181.568C209.277 180.928 209.35 180.25 209.586 179.533C209.822 178.813 210.17 178.223 210.628 177.764C211.087 177.301 211.619 176.999 212.225 176.857C212.835 176.713 213.486 176.755 214.178 176.983C214.753 177.172 215.228 177.446 215.601 177.804C215.978 178.159 216.236 178.573 216.374 179.045C216.513 179.513 216.517 180.009 216.386 180.532L214.789 180.007C214.837 179.644 214.777 179.309 214.609 179.001C214.445 178.691 214.161 178.47 213.758 178.338C213.416 178.226 213.086 178.219 212.767 178.319C212.449 178.415 212.161 178.611 211.904 178.904C211.651 179.199 211.445 179.585 211.288 180.062C211.13 180.545 211.064 180.984 211.091 181.378C211.119 181.769 211.23 182.1 211.424 182.372C211.621 182.642 211.894 182.834 212.242 182.948C212.488 183.029 212.723 183.055 212.947 183.027C213.175 182.996 213.385 182.913 213.576 182.778C213.767 182.643 213.929 182.456 214.062 182.217L215.659 182.742C215.454 183.231 215.16 183.627 214.777 183.93C214.396 184.231 213.949 184.418 213.437 184.492C212.926 184.562 212.374 184.5 211.78 184.305ZM219.28 186.772C218.573 186.539 218.016 186.184 217.611 185.706C217.208 185.229 216.96 184.672 216.867 184.034C216.777 183.395 216.85 182.716 217.086 182C217.323 181.28 217.67 180.69 218.128 180.23C218.587 179.768 219.119 179.465 219.725 179.324C220.335 179.18 220.986 179.222 221.678 179.449C222.254 179.639 222.728 179.912 223.101 180.27C223.478 180.626 223.736 181.04 223.874 181.511C224.013 181.98 224.017 182.476 223.886 182.999L222.289 182.473C222.337 182.111 222.277 181.775 222.109 181.468C221.945 181.158 221.661 180.937 221.258 180.805C220.917 180.692 220.586 180.686 220.267 180.785C219.949 180.882 219.662 181.077 219.405 181.371C219.151 181.666 218.945 182.052 218.789 182.529C218.63 183.012 218.564 183.45 218.591 183.845C218.619 184.236 218.73 184.567 218.924 184.839C219.122 185.108 219.394 185.3 219.742 185.415C219.988 185.496 220.223 185.522 220.447 185.493C220.676 185.463 220.885 185.38 221.076 185.245C221.267 185.11 221.429 184.923 221.562 184.684L223.159 185.209C222.954 185.697 222.66 186.093 222.278 186.397C221.896 186.698 221.449 186.885 220.937 186.958C220.426 187.029 219.874 186.967 219.28 186.772ZM226.827 189.253C226.116 189.02 225.551 188.67 225.131 188.205C224.715 187.737 224.459 187.186 224.361 186.55C224.264 185.912 224.338 185.222 224.581 184.48C224.821 183.751 225.17 183.157 225.628 182.697C226.09 182.235 226.623 181.933 227.225 181.79C227.829 181.645 228.469 181.683 229.146 181.906C229.583 182.049 229.972 182.256 230.313 182.525C230.658 182.791 230.932 183.12 231.134 183.511C231.34 183.902 231.454 184.352 231.478 184.861C231.502 185.367 231.412 185.931 231.208 186.552L231.039 187.064L225.229 185.153L225.6 184.027L229.808 185.412C229.911 185.091 229.935 184.783 229.882 184.49C229.829 184.193 229.705 183.932 229.51 183.708C229.317 183.484 229.061 183.32 228.741 183.214C228.4 183.102 228.072 183.087 227.759 183.168C227.447 183.246 227.175 183.395 226.942 183.615C226.714 183.833 226.546 184.1 226.439 184.416L226.115 185.399C225.98 185.811 225.939 186.19 225.992 186.535C226.047 186.876 226.184 187.17 226.403 187.416C226.623 187.659 226.915 187.84 227.278 187.96C227.521 188.04 227.752 188.078 227.971 188.075C228.191 188.069 228.396 188.022 228.585 187.934C228.774 187.847 228.938 187.715 229.078 187.539L230.58 188.228C230.346 188.607 230.04 188.906 229.662 189.122C229.288 189.337 228.859 189.458 228.376 189.487C227.894 189.512 227.377 189.435 226.827 189.253ZM238.755 187.244L237.177 186.909C237.185 186.741 237.157 186.572 237.094 186.401C237.034 186.232 236.928 186.076 236.777 185.934C236.626 185.792 236.421 185.679 236.163 185.594C235.815 185.48 235.498 185.459 235.211 185.532C234.928 185.606 234.748 185.763 234.673 186.004C234.602 186.209 234.622 186.401 234.733 186.581C234.848 186.762 235.071 186.953 235.404 187.155L236.528 187.811C237.151 188.176 237.574 188.569 237.797 188.99C238.023 189.412 238.054 189.878 237.89 190.386C237.74 190.831 237.48 191.182 237.109 191.439C236.743 191.693 236.3 191.841 235.782 191.882C235.264 191.923 234.71 191.846 234.119 191.652C233.252 191.366 232.613 190.955 232.203 190.418C231.794 189.878 231.646 189.265 231.759 188.58L233.44 188.958C233.409 189.303 233.486 189.596 233.673 189.838C233.859 190.08 234.144 190.264 234.529 190.39C234.926 190.521 235.271 190.544 235.565 190.46C235.861 190.377 236.049 190.215 236.128 189.975C236.195 189.772 236.171 189.579 236.058 189.395C235.948 189.212 235.741 189.032 235.438 188.854L234.313 188.202C233.679 187.837 233.255 187.433 233.039 186.991C232.824 186.545 232.803 186.064 232.976 185.548C233.117 185.11 233.36 184.771 233.705 184.53C234.054 184.287 234.473 184.148 234.962 184.115C235.454 184.079 235.983 184.154 236.549 184.34C237.38 184.614 237.976 185.005 238.336 185.516C238.7 186.028 238.839 186.604 238.755 187.244ZM245.887 189.59L244.309 189.255C244.317 189.087 244.289 188.918 244.226 188.747C244.166 188.577 244.06 188.421 243.909 188.28C243.758 188.138 243.553 188.025 243.295 187.94C242.947 187.825 242.63 187.804 242.344 187.877C242.06 187.951 241.881 188.109 241.805 188.35C241.734 188.555 241.754 188.747 241.865 188.927C241.98 189.108 242.203 189.299 242.536 189.5L243.66 190.156C244.283 190.522 244.706 190.915 244.929 191.336C245.155 191.758 245.186 192.223 245.022 192.732C244.872 193.177 244.612 193.528 244.241 193.784C243.875 194.039 243.432 194.186 242.914 194.227C242.396 194.268 241.842 194.192 241.251 193.997C240.384 193.712 239.745 193.301 239.335 192.764C238.927 192.224 238.779 191.611 238.892 190.925L240.572 191.304C240.541 191.648 240.618 191.941 240.805 192.183C240.991 192.425 241.276 192.61 241.661 192.736C242.058 192.867 242.403 192.89 242.697 192.806C242.993 192.723 243.181 192.561 243.26 192.321C243.327 192.118 243.304 191.925 243.19 191.741C243.08 191.558 242.873 191.377 242.57 191.199L241.445 190.548C240.811 190.183 240.387 189.779 240.171 189.336C239.956 188.891 239.935 188.41 240.108 187.894C240.249 187.456 240.492 187.117 240.837 186.876C241.186 186.632 241.605 186.494 242.094 186.46C242.586 186.425 243.115 186.5 243.681 186.686C244.512 186.959 245.108 187.351 245.468 187.862C245.832 188.373 245.971 188.949 245.887 189.59ZM251.623 189.4L251.198 190.692L247.008 189.314L247.433 188.022L251.623 189.4ZM246.149 195.455L248.701 187.697C248.857 187.221 249.086 186.856 249.387 186.604C249.692 186.353 250.037 186.204 250.424 186.157C250.811 186.111 251.209 186.155 251.618 186.289C251.908 186.384 252.157 186.492 252.366 186.612C252.576 186.732 252.728 186.828 252.824 186.901L252.066 188.083C252.003 188.039 251.921 187.988 251.82 187.931C251.72 187.871 251.605 187.819 251.472 187.775C251.162 187.673 250.917 187.676 250.738 187.785C250.563 187.891 250.43 188.082 250.339 188.359L247.824 196.006L246.149 195.455ZM256.099 195.423L257.449 191.316L259.12 191.866L256.789 198.954L255.169 198.421L255.583 197.161L255.509 197.137C255.219 197.481 254.849 197.72 254.4 197.851C253.954 197.984 253.465 197.963 252.933 197.788C252.468 197.635 252.091 197.397 251.802 197.074C251.517 196.748 251.34 196.354 251.271 195.891C251.202 195.426 251.261 194.91 251.447 194.344L252.931 189.83L254.602 190.38L253.203 194.635C253.055 195.084 253.061 195.481 253.22 195.827C253.379 196.172 253.658 196.411 254.058 196.542C254.304 196.623 254.563 196.642 254.833 196.598C255.103 196.554 255.351 196.437 255.576 196.249C255.806 196.059 255.98 195.783 256.099 195.423ZM263.285 190.617L260.177 200.068L258.506 199.519L261.615 190.068L263.285 190.617Z" fill="#121212"/>
</g>
<defs>
<filter id="filter0_d_1_213" x="0.774048" y="0.77417" width="386.239" height="396.338" filterUnits="userSpaceOnUse" color-interpolation-filters="sRGB">
<feFlood flood-opacity="0" result="BackgroundImageFix"/>
<feColorMatrix in="SourceAlpha" type="matrix" values="0 0 0 0 0 0 0 0 0 0 0 0 0 0 0 0 0 0 127 0" result="hardAlpha"/>
<feOffset dy="12"/>
<feGaussianBlur stdDeviation="12"/>
<feComposite in2="hardAlpha" operator="out"/>
<feColorMatrix type="matrix" values="0 0 0 0 0.144028 0 0 0 0 0.292169 0 0 0 0 0.566667 0 0 0 0.24 0"/>
<feBlend mode="normal" in2="BackgroundImageFix" result="effect1_dropShadow_1_213"/>
<feBlend mode="normal" in="SourceGraphic" in2="effect1_dropShadow_1_213" result="shape"/>
</filter>
<linearGradient id="paint0_linear_1_213" x1="232.379" y1="151.168" x2="211.63" y2="125.155" gradientUnits="userSpaceOnUse">
<stop stop-color="white"/>
<stop offset="1" stop-color="white" stop-opacity="0"/>
</linearGradient>
</defs>
</svg>
