<svg width="75" height="92" viewBox="0 0 75 92" fill="none" xmlns="http://www.w3.org/2000/svg">
<path fill-rule="evenodd" clip-rule="evenodd" d="M23.6935 44.8329L18.5982 40.4951C20.0423 42.2388 21.7566 43.6713 23.6935 44.8329ZM31.9191 56.9659C30.1656 55.0877 28.3647 53.2875 26.8396 51.2384C27.9743 53.6521 29.8961 55.3711 31.9191 56.9659ZM35.5208 47.7401C36.3851 47.259 35.9596 46.7671 35.5945 46.3014C34.3611 44.7257 32.5301 44.6031 30.7784 44.5029C29.5018 44.4296 28.1654 44.5144 26.9848 45.1738C26.5345 45.425 26.2476 45.7481 26.8991 46.1433C28.6781 47.222 30.5533 48.0335 32.6543 48.1893C33.6553 48.2635 34.6402 48.1485 35.5208 47.7401ZM27.8592 50.6645C28.5924 52.1014 29.7474 53.2207 30.856 54.3637C35.6465 59.3019 41.5214 62.4048 47.9835 64.5641C52.3003 66.0064 56.7122 67.0228 61.1687 67.8855C61.5752 67.9646 61.9895 68.0283 62.3169 68.3106C62.6846 68.6279 62.814 68.927 62.177 69.0441C62.0202 69.0734 61.7942 68.9623 61.8605 69.2535C62.0885 70.2578 61.3337 70.3837 60.6809 70.5571C59.456 70.883 58.2109 70.6531 56.9904 70.5454C53.5712 70.244 50.1601 69.813 46.8351 68.9381C43.7484 68.1257 40.814 66.8753 37.9163 65.5434C36.0718 64.6955 34.2073 63.8075 32.7763 62.3841C31.8257 61.4386 30.6202 60.9261 29.68 60.0109C27.8776 58.2561 26.1011 56.4892 24.7201 54.3668C23.5837 52.6199 22.9623 50.7101 22.9584 48.6248C22.9573 47.9373 22.6986 47.4389 22.1805 47.0378C20.7848 45.9567 19.4195 44.8274 18.0806 43.6891C15.9017 41.8376 14.0267 39.6489 12.2482 37.4022C9.4115 33.8187 6.97231 29.9994 5.49757 25.6323C4.6308 23.0655 3.94305 20.4786 4.69585 17.7448C4.894 17.025 5.20742 16.3956 5.90309 16.0243C6.20272 15.864 6.47903 15.829 6.7679 16.0465C7.109 16.3039 6.88458 16.4726 6.75394 16.7566C5.85736 18.7043 6.64506 20.5353 7.24626 22.3596C8.90287 27.3874 11.8965 31.617 15.2402 35.631C17.799 38.7026 20.6329 41.495 23.7903 43.9526C24.041 44.1478 24.2342 44.5046 24.5938 44.0156C25.8465 42.3119 27.6306 41.4458 29.6461 41.0889C32.757 40.5378 35.716 40.8516 38.1124 43.1754C39.4001 44.424 39.487 45.7001 38.717 47.3088C36.7561 51.4076 32.5577 52.1882 29.0023 50.8415C28.6841 50.7205 28.366 50.5998 28.0484 50.4793C27.9851 50.541 27.9222 50.6029 27.8592 50.6645Z" fill="black"/>
<path fill-rule="evenodd" clip-rule="evenodd" d="M66.7848 66.5874C68.3408 68.0207 70.0551 69.2126 72.0006 70.0498C70.2622 68.8957 68.5234 67.7418 66.7848 66.5874ZM61.5098 74.428C63.3913 73.4018 65.415 72.7146 67.4068 71.9503C67.7045 71.8362 68.1141 71.8597 68.1556 71.3794C68.1953 70.9181 67.8151 70.7981 67.54 70.6593C66.041 69.9015 64.8483 68.7461 63.5376 67.7354C62.7093 67.0973 61.7538 66.6105 60.9229 65.9288C59.6439 64.8789 58.2846 63.9237 56.9347 62.9635C56.2508 62.4768 55.8242 61.6909 54.9143 61.4486C54.0217 61.2106 53.8416 60.5005 54.3896 59.2619C54.6691 58.6297 55.2299 58.1143 56.0351 58.4544C56.6973 58.7342 57.3493 59.0701 57.9432 59.473C61.8733 62.1402 65.7818 64.8391 69.7088 67.5108C70.5902 68.1106 71.5131 68.6516 72.4232 69.2086C74.0782 70.2213 74.2206 70.9706 73.1794 72.6179C72.3712 73.8967 71.2544 74.6033 69.7822 74.9013C66.9483 75.4751 64.1307 76.1297 61.4434 77.2318C60.905 77.4528 60.398 77.7492 59.8675 77.9915C59.2533 78.2726 58.9473 78.0846 59.0029 77.3869C59.1252 75.8402 59.3275 75.5994 61.5098 74.428Z" fill="black"/>
</svg>
